<svg width="18" height="22" viewBox="0 0 18 22" fill="none" xmlns="http://www.w3.org/2000/svg">
<path fill-rule="evenodd" clip-rule="evenodd" d="M12.9367 22H7.15293C7.15293 22 7.16089 20.2605 7.15293 19.0667C3.19415 19.9305 2.08962 16.8667 2.08962 16.8667C1.36629 15.4 0.64296 14.6667 0.64296 14.6667C-0.803701 13.7955 0.64296 13.9333 0.64296 13.9333C2.08962 13.9333 2.81295 15.4 2.81295 15.4C4.0824 17.5861 6.34136 17.2341 7.15293 16.8667C7.15293 16.1333 7.46975 15.0245 7.87627 14.6667C4.71676 14.3059 2.08673 12.4667 2.08673 8.8C2.08673 5.13333 2.81295 4.4 3.53628 3.66667C3.39017 3.30513 2.78474 1.969 3.55871 0C3.55871 0 4.98005 0 6.42671 2.2C7.14353 1.47327 9.32003 1.46667 10.0441 1.46667C10.7667 1.46667 12.9432 1.47327 13.66 2.2C15.1067 0 16.5309 0 16.5309 0C17.3049 1.969 16.6995 3.30513 16.5533 3.66667C17.2767 4.4 18 5.13333 18 8.8C18 12.4667 15.3729 14.3059 12.2134 14.6667C12.6199 15.0245 12.9367 16.2873 12.9367 16.8667V22Z" fill="white"/>
</svg>
