<svg width="25" height="24" viewBox="0 0 25 24" fill="none" xmlns="http://www.w3.org/2000/svg">
<path d="M12.5 2C15.3302 2 15.6833 2.01 16.7938 2.06C17.9031 2.11 18.6583 2.277 19.3229 2.525C20.0104 2.779 20.5896 3.123 21.1688 3.678C21.6984 4.1779 22.1083 4.78259 22.3698 5.45C22.6271 6.087 22.8021 6.813 22.8542 7.878C22.9031 8.944 22.9167 9.283 22.9167 12C22.9167 14.717 22.9063 15.056 22.8542 16.122C22.8021 17.187 22.6271 17.912 22.3698 18.55C22.1091 19.2178 21.6991 19.8226 21.1688 20.322C20.6479 20.8303 20.018 21.2238 19.3229 21.475C18.6594 21.722 17.9031 21.89 16.7938 21.94C15.6833 21.987 15.3302 22 12.5 22C9.6698 22 9.31668 21.99 8.20626 21.94C7.09689 21.89 6.34168 21.722 5.67709 21.475C4.9816 21.2245 4.3516 20.8309 3.83126 20.322C3.30148 19.8222 2.89161 19.2175 2.63022 18.55C2.37189 17.913 2.19793 17.187 2.14584 16.122C2.09689 15.056 2.08334 14.717 2.08334 12C2.08334 9.283 2.09376 8.944 2.14584 7.878C2.19793 6.812 2.37189 6.088 2.63022 5.45C2.89088 4.78218 3.30085 4.17732 3.83126 3.678C4.35175 3.16923 4.98171 2.77573 5.67709 2.525C6.34168 2.277 7.09584 2.11 8.20626 2.06C9.31668 2.013 9.6698 2 12.5 2ZM12.5 7C11.1187 7 9.79391 7.52678 8.81716 8.46447C7.84041 9.40215 7.29168 10.6739 7.29168 12C7.29168 13.3261 7.84041 14.5979 8.81716 15.5355C9.79391 16.4732 11.1187 17 12.5 17C13.8813 17 15.2061 16.4732 16.1829 15.5355C17.1596 14.5979 17.7083 13.3261 17.7083 12C17.7083 10.6739 17.1596 9.40215 16.1829 8.46447C15.2061 7.52678 13.8813 7 12.5 7ZM19.2708 6.75C19.2708 6.41848 19.1337 6.10054 18.8895 5.86612C18.6453 5.6317 18.3141 5.5 17.9688 5.5C17.6234 5.5 17.2922 5.6317 17.048 5.86612C16.8039 6.10054 16.6667 6.41848 16.6667 6.75C16.6667 7.08152 16.8039 7.39946 17.048 7.63388C17.2922 7.8683 17.6234 8 17.9688 8C18.3141 8 18.6453 7.8683 18.8895 7.63388C19.1337 7.39946 19.2708 7.08152 19.2708 6.75ZM12.5 9C13.3288 9 14.1237 9.31607 14.7097 9.87868C15.2958 10.4413 15.625 11.2044 15.625 12C15.625 12.7957 15.2958 13.5587 14.7097 14.1213C14.1237 14.6839 13.3288 15 12.5 15C11.6712 15 10.8764 14.6839 10.2903 14.1213C9.70425 13.5587 9.37501 12.7957 9.37501 12C9.37501 11.2044 9.70425 10.4413 10.2903 9.87868C10.8764 9.31607 11.6712 9 12.5 9Z" fill="white"/>
</svg>
