<svg width="21" height="20" viewBox="0 0 21 20" fill="none" xmlns="http://www.w3.org/2000/svg">
<path d="M0 5.625H4.57386V20H0V5.625ZM15.6838 5.625C13.0682 5.625 12.3429 6.445 11.7614 7.5V5.625H7.1875V20H11.7614V11.875C11.7614 10.625 11.7614 9.375 14.0483 9.375C16.3352 9.375 16.3352 10.625 16.3352 11.875V20H20.9091V11.875C20.9091 8.125 20.2557 5.625 15.6838 5.625Z" fill="white"/>
<path d="M2.28693 4.375C3.54997 4.375 4.57386 3.39562 4.57386 2.1875C4.57386 0.979377 3.54997 0 2.28693 0C1.02389 0 0 0.979377 0 2.1875C0 3.39562 1.02389 4.375 2.28693 4.375Z" fill="white"/>
</svg>
