<svg width="59" height="59" viewBox="0 0 59 59" fill="none" xmlns="http://www.w3.org/2000/svg">
<path d="M0 0H59V59H0V0Z" fill="#F7DF1E"/>
<path d="M15.5132 49.3047L20.0283 46.5722C20.8994 48.1166 21.6918 49.4233 23.5924 49.4233C25.4143 49.4233 26.5629 48.7106 26.5629 45.9386V27.0867H32.1074V46.017C32.1074 51.7596 28.7412 54.3735 23.8301 54.3735C19.3947 54.3735 16.8201 52.0764 15.5132 49.3042" fill="black"/>
<path d="M35.119 48.7107L39.6336 46.0968C40.822 48.0376 42.3666 49.4632 45.0991 49.4632C47.3965 49.4632 48.8615 48.3146 48.8615 46.7304C48.8615 44.8294 47.3566 44.156 44.8218 43.0475L43.4361 42.453C39.4358 40.7503 36.7822 38.6117 36.7822 34.0967C36.7822 29.9383 39.9505 26.7698 44.9012 26.7698C48.4261 26.7698 50.9607 27.9976 52.7823 31.2056L48.4654 33.9778C47.5149 32.2749 46.4854 31.6018 44.9013 31.6018C43.2775 31.6018 42.2477 32.6315 42.2477 33.9778C42.2477 35.6412 43.2775 36.3147 45.6535 37.3444L47.0396 37.9385C51.7526 39.9584 54.4061 42.0176 54.4061 46.6512C54.4061 51.6416 50.4854 54.3741 45.2181 54.3741C40.0695 54.3741 36.7427 51.9188 35.1191 48.7107" fill="black"/>
</svg>
