<svg width="1440" height="6000" viewBox="0 0 1440 6000" fill="none" xmlns="http://www.w3.org/2000/svg">
<rect width="1440" height="6000" fill="#E5E5E5"/>
<g clip-path="url(#clip0_0_1)">
<rect width="1440" height="6000" fill="#191919"/>
<path d="M1412.24 4064.68L1524.81 3996.82L1491.97 3897.98C1491.52 3898.12 1491.07 3898.24 1490.62 3898.32C1488.31 3898.74 1485.96 3898.51 1483.79 3897.64L1408.18 4060.54C1409.8 4061.59 1411.18 4063 1412.24 4064.68V4064.68Z" stroke="#08FDD8" stroke-miterlimit="10"/>
<path d="M1580.72 4203.31C1580.31 4200.33 1580.79 4197.27 1582.09 4194.57L1411.56 4081.5C1409.56 4084.29 1406.71 4086.24 1403.52 4086.97C1400.34 4087.71 1397.04 4087.18 1394.25 4085.49L1231.26 4333.97C1232.71 4335.38 1233.84 4337.13 1234.57 4339.09L1580.94 4204.58C1580.84 4204.16 1580.77 4203.74 1580.72 4203.31V4203.31Z" stroke="#08FDD8" stroke-miterlimit="10"/>
<path d="M1550.04 4436.69C1551.06 4436.5 1552.1 4436.45 1553.13 4436.52L1574.41 4309.87L1437.33 4285.54C1436.7 4288.16 1435.39 4290.56 1433.56 4292.45L1544.62 4439.05C1546.25 4437.85 1548.1 4437.04 1550.04 4436.69V4436.69Z" stroke="#08FDD8" stroke-miterlimit="10"/>
<path d="M1350.69 2091.52L1488.64 1861.84L1373.82 1813.25C1372.69 1815.87 1370.86 1818.09 1368.57 1819.63C1366.28 1821.16 1363.64 1821.94 1360.97 1821.86L1355.39 1929.62L1346.97 2090.76C1348.25 2090.81 1349.5 2091.07 1350.69 2091.52V2091.52Z" stroke="#08FDD8" stroke-miterlimit="10"/>
<path d="M1390.35 4081.86L1154.31 4244.32L1215.27 4332.61C1217.39 4331.17 1219.84 4330.39 1222.32 4330.35C1224.81 4330.31 1227.24 4331.02 1229.34 4332.39L1392.29 4084.02C1391.57 4083.38 1390.92 4082.65 1390.35 4081.86V4081.86Z" stroke="#08FDD8" stroke-miterlimit="10"/>
<path d="M1424.97 4267.93C1427.19 4267.99 1429.35 4268.64 1431.26 4269.82C1433.16 4271 1434.75 4272.68 1435.89 4274.7L1561.5 4214.89L1424.97 4267.93Z" stroke="#08FDD8" stroke-miterlimit="10"/>
<path d="M1387.8 4075.35L1387.74 4074.83L1059.01 4089.22C1058.85 4091.14 1058.32 4093.01 1057.48 4094.73C1056.63 4096.44 1055.48 4097.96 1054.08 4099.21L1152.83 4242.21L1389.05 4079.64C1388.42 4078.3 1387.99 4076.85 1387.8 4075.35V4075.35Z" stroke="#08FDD8" stroke-miterlimit="10"/>
<path d="M1052.02 4100.74C1050.65 4101.57 1049.16 4102.15 1047.61 4102.43L1064.06 4290.48C1066.13 4290.42 1068.18 4290.88 1070.03 4291.83C1071.89 4292.77 1073.51 4294.17 1074.76 4295.91L1150.73 4243.62L1052.02 4100.74Z" stroke="#08FDD8" stroke-miterlimit="10"/>
<path d="M1059.75 4318.6C1056.94 4317.65 1054.54 4315.72 1052.9 4313.11C1051.27 4310.5 1050.5 4307.36 1050.72 4304.18C1050.93 4301 1052.13 4297.97 1054.1 4295.54C1056.08 4293.12 1058.74 4291.45 1061.65 4290.8L1045.25 4103.52L1011.64 4533.9L1059.75 4318.6Z" stroke="#08FDD8" stroke-miterlimit="10"/>
<path d="M1578.99 2854.15C1578.46 2852.91 1578.09 2851.59 1577.91 2850.23C1577.82 2849.58 1577.78 2848.92 1577.78 2848.26L1359.08 2833.93C1358.5 2837.37 1356.79 2840.49 1354.26 2842.73L1424 2954.43L1578.99 2854.15Z" stroke="#08FDD8" stroke-miterlimit="10"/>
<path d="M1035.64 4098.05C1033.9 4096 1032.77 4093.43 1032.41 4090.66C1032.29 4089.74 1032.25 4088.8 1032.3 4087.86L876.738 4064.23C876.289 4066.56 875.316 4068.75 873.904 4070.61C872.493 4072.46 870.685 4073.93 868.642 4074.88L918.017 4240.87L1035.64 4098.05Z" stroke="#08FDD8" stroke-miterlimit="10"/>
<path d="M1475.84 3888.65C1475.65 3887.98 1475.5 3887.3 1475.4 3886.61C1475 3883.61 1475.5 3880.52 1476.83 3877.79L1202.58 3693.48C1201.77 3694.6 1200.83 3695.59 1199.76 3696.42L1337.58 3952.32L1475.84 3888.65Z" stroke="#08FDD8" stroke-miterlimit="10"/>
<path d="M1583.43 4192.3C1584.74 4190.46 1586.43 4188.97 1588.36 4187.96L1525.64 3999.33L1413.41 4066.98C1414.18 4068.91 1414.54 4071.01 1414.46 4073.13C1414.38 4075.24 1413.87 4077.33 1412.96 4079.23L1583.43 4192.3Z" stroke="#08FDD8" stroke-miterlimit="10"/>
<path d="M1547.65 3328.94L1383.01 3231.49L1359.85 3243.52C1360.13 3244.39 1360.34 3245.29 1360.47 3246.2C1360.75 3248.28 1360.6 3250.4 1360.02 3252.43L1547.65 3328.94Z" stroke="#08FDD8" stroke-miterlimit="10"/>
<path d="M1590.38 4214.83C1588.63 4214.36 1587 4213.5 1585.59 4212.32C1584.17 4211.13 1583 4209.64 1582.16 4207.94L1436.94 4277.07C1437.25 4277.99 1437.48 4278.94 1437.62 4279.9C1437.74 4280.9 1437.78 4281.9 1437.72 4282.91L1574.86 4307.25L1590.38 4214.83Z" stroke="#08FDD8" stroke-miterlimit="10"/>
<path d="M1505.62 3813.73L1534.3 3711.5C1532.57 3710.79 1531.01 3709.71 1529.71 3708.3C1528.41 3706.9 1527.41 3705.21 1526.77 3703.35L1394.81 3744.64C1395.04 3747.28 1394.58 3749.95 1393.48 3752.35L1505.62 3813.73Z" stroke="#08FDD8" stroke-miterlimit="10"/>
<path d="M1058.94 4085.81L1059.01 4086.56L1387.7 4072.17C1387.86 4070.05 1388.46 4067.97 1389.45 4066.1C1390.44 4064.23 1391.8 4062.61 1393.43 4061.35L1336.55 3955.73L1058.52 4083.77C1058.71 4084.44 1058.85 4085.12 1058.94 4085.81V4085.81Z" stroke="#08FDD8" stroke-miterlimit="10"/>
<path d="M1007.13 4536.93C1007.73 4536.81 1008.33 4536.75 1008.93 4536.73L1042.8 4102.43C1040.85 4102.02 1039.02 4101.15 1037.44 4099.88L918.889 4243.76L1006.2 4537.14C1006.51 4537.07 1006.81 4536.98 1007.13 4536.93Z" stroke="#08FDD8" stroke-miterlimit="10"/>
<path d="M689.891 4533.47C689.966 4534.04 690.01 4534.61 690.023 4535.18L995.813 4549.19C996.183 4546.77 997.113 4544.48 998.517 4542.53C999.92 4540.58 1001.75 4539.03 1003.84 4538.02L917 4246.12L686.502 4525.89C688.323 4527.98 689.504 4530.62 689.891 4533.47V4533.47Z" stroke="#08FDD8" stroke-miterlimit="10"/>
<path d="M1209.46 4340.55C1210.2 4338.13 1211.52 4335.96 1213.27 4334.23L1152.22 4245.77L1076.13 4298.14C1077.38 4300.81 1077.8 4303.86 1077.35 4306.85L1209.46 4340.55Z" stroke="#08FDD8" stroke-miterlimit="10"/>
<path d="M1415.76 4271.51L1260.02 4332.01L1411.04 4284.5C1410.75 4282.11 1411.04 4279.67 1411.87 4277.4C1412.69 4275.13 1414.03 4273.1 1415.76 4271.51Z" stroke="#08FDD8" stroke-miterlimit="10"/>
<path d="M1057.58 4081.27L1335.25 3953.32L1197.6 3697.7C1194.69 3699.2 1191.39 3699.54 1188.32 3698.65L1051.35 4074.94C1054.04 4076.24 1056.23 4078.46 1057.58 4081.27V4081.27Z" stroke="#08FDD8" stroke-miterlimit="10"/>
<path d="M916.069 4243.18L866.237 4075.72C865.994 4075.78 865.762 4075.85 865.51 4075.89C863.24 4076.31 860.922 4076.09 858.782 4075.26L682.993 4523.07C683.575 4523.39 684.135 4523.75 684.668 4524.16L916.069 4243.18Z" stroke="#08FDD8" stroke-miterlimit="10"/>
<path d="M1478.17 3875.53C1478.44 3875.16 1478.72 3874.8 1479.03 3874.46L1388.48 3758.26C1386.92 3759.33 1385.19 3760.05 1383.39 3760.37C1381.23 3760.77 1379.03 3760.6 1376.98 3759.88C1374.93 3759.16 1373.08 3757.9 1371.61 3756.22C1370.13 3754.55 1369.07 3752.5 1368.51 3750.25C1367.95 3748.01 1367.91 3745.64 1368.4 3743.34L1204.38 3690.22C1204.24 3690.56 1204.1 3690.89 1203.94 3691.21L1478.17 3875.53Z" stroke="#08FDD8" stroke-miterlimit="10"/>
<path d="M1386.76 3732.82L1557.66 3349.91C1554.87 3348.45 1552.67 3345.98 1551.44 3342.91C1550.21 3339.85 1550.04 3336.39 1550.95 3333.15L1359.1 3254.89C1358.14 3256.9 1356.77 3258.66 1355.08 3260.03C1353.4 3261.39 1351.45 3262.32 1349.39 3262.74L1380.77 3731.82C1382.82 3731.65 1384.87 3731.99 1386.76 3732.82V3732.82Z" stroke="#08FDD8" stroke-miterlimit="10"/>
<path d="M1374.67 1810.7L1490.02 1859.51L1560.17 1742.75C1558.75 1741.33 1557.64 1739.59 1556.93 1737.65L1374.43 1802.62C1374.67 1803.39 1374.85 1804.19 1374.97 1804.99C1375.22 1806.89 1375.12 1808.83 1374.67 1810.7Z" stroke="#08FDD8" stroke-miterlimit="10"/>
<path d="M1345.28 3234.39C1347.93 3233.91 1350.64 3234.29 1353.06 3235.48C1355.47 3236.68 1357.48 3238.63 1358.82 3241.1L1380.38 3229.9L1196.67 3121.16L1337.57 3238.84C1339.63 3236.49 1342.34 3234.92 1345.28 3234.39Z" stroke="#08FDD8" stroke-miterlimit="10"/>
<path d="M1359.11 2829.36C1359.19 2830.01 1359.23 2830.66 1359.23 2831.32L1577.94 2845.6C1578.48 2842.39 1580.01 2839.45 1582.27 2837.24L1464.71 2667.25C1462.67 2668.72 1460.3 2669.58 1457.87 2669.72C1455.44 2669.86 1453.03 2669.28 1450.92 2668.05L1354.47 2820.59C1356.99 2822.78 1358.63 2825.9 1359.11 2829.36V2829.36Z" stroke="#08FDD8" stroke-miterlimit="10"/>
<path d="M1502.49 2280.77C1504.74 2280.35 1507.04 2280.56 1509.16 2281.37L1548.02 2198.6L1358.33 2110.98C1357.76 2112.32 1357 2113.56 1356.09 2114.67L1496.33 2283.71C1498.13 2282.19 1500.25 2281.18 1502.49 2280.77V2280.77Z" stroke="#08FDD8" stroke-miterlimit="10"/>
<path d="M1194.28 3103.17L1421.85 2955.87L1352.18 2844.31C1350.82 2845.14 1349.34 2845.71 1347.8 2845.99C1345.05 2846.49 1342.25 2846.07 1339.78 2844.78L1191.53 3100.18C1192.59 3101.02 1193.51 3102.03 1194.28 3103.17Z" stroke="#08FDD8" stroke-miterlimit="10"/>
<path d="M1530.09 3152.19C1529.81 3151.32 1529.6 3150.42 1529.47 3149.51C1529.37 3148.71 1529.33 3147.91 1529.35 3147.1L1196.43 3114.41C1196.22 3115.46 1195.91 3116.48 1195.51 3117.46L1383.18 3228.51L1530.09 3152.19Z" stroke="#08FDD8" stroke-miterlimit="10"/>
<path d="M1561.86 3322.75L1561.98 3322.77L1542.83 3161.5C1540.46 3161.59 1538.12 3161 1536.06 3159.79C1533.99 3158.57 1532.28 3156.79 1531.1 3154.61L1385.77 3230.06L1552.84 3328.94C1553.88 3327.31 1555.22 3325.93 1556.78 3324.86C1558.33 3323.8 1560.06 3323.08 1561.86 3322.75V3322.75Z" stroke="#08FDD8" stroke-miterlimit="10"/>
<path d="M1399.14 4058.72C1401.45 4058.3 1403.81 4058.53 1405.98 4059.39L1481.55 3896.56C1479.52 3895.24 1477.87 3893.36 1476.76 3891.1L1338.81 3954.64L1395.53 4059.97C1396.68 4059.38 1397.89 4058.96 1399.14 4058.72Z" stroke="#08FDD8" stroke-miterlimit="10"/>
<path d="M1196.61 3109.36C1196.72 3110.15 1196.76 3110.96 1196.74 3111.76L1529.66 3144.46C1530.31 3141.19 1531.98 3138.23 1534.39 3136.08L1423.23 2958.09L1195.53 3105.44C1196.06 3106.68 1196.43 3108 1196.61 3109.36V3109.36Z" stroke="#08FDD8" stroke-miterlimit="10"/>
<path d="M1486.75 3869.98C1487.79 3869.79 1488.85 3869.74 1489.9 3869.82L1504.91 3816.35L1392.14 3754.63C1391.65 3755.34 1391.1 3756.01 1390.5 3756.62L1480.9 3872.67C1482.63 3871.29 1484.64 3870.37 1486.75 3869.98V3869.98Z" stroke="#08FDD8" stroke-miterlimit="10"/>
<path d="M1394.38 3742.01L1526.15 3700.79C1526.12 3700.68 1526.1 3700.57 1526.09 3700.46C1525.58 3696.69 1526.49 3692.83 1528.61 3689.71C1530.74 3686.59 1533.91 3684.47 1537.43 3683.83C1538 3683.73 1538.56 3683.67 1539.13 3683.65L1562.6 3351.31C1561.7 3351.26 1560.81 3351.1 1559.94 3350.86L1388.91 3734.08C1391.58 3735.91 1393.52 3738.72 1394.38 3742.01V3742.01Z" stroke="#08FDD8" stroke-miterlimit="10"/>
<path d="M1540.86 3132.89C1541.19 3132.83 1541.52 3132.8 1541.85 3132.76L1587.6 2861.83C1584.64 2861.02 1582.05 2859.13 1580.27 2856.49L1425.39 2956.74L1536.46 3134.64C1537.83 3133.79 1539.32 3133.2 1540.86 3132.89V3132.89Z" stroke="#08FDD8" stroke-miterlimit="10"/>
<path d="M1549.15 2196.19L1664.63 1950.25C1662.75 1949.04 1661.2 1947.33 1660.1 1945.3L1358.08 2098.23C1359.62 2101.34 1360.01 2104.99 1359.18 2108.47L1549.15 2196.19Z" stroke="#08FDD8" stroke-miterlimit="10"/>
<path d="M1352.95 2092.59C1354.4 2093.47 1355.67 2094.64 1356.72 2096.03L1659.09 1942.91C1658.83 1942.08 1658.64 1941.23 1658.52 1940.37C1658.23 1938.24 1658.4 1936.05 1659.01 1933.97L1490.96 1862.85L1352.95 2092.59Z" stroke="#08FDD8" stroke-miterlimit="10"/>
<path d="M663.357 4538.32C663.826 4541.71 665.409 4544.77 667.822 4546.96C670.234 4549.15 673.317 4550.32 676.515 4550.26C679.712 4550.2 682.815 4548.92 685.262 4546.64C687.709 4544.37 689.341 4541.25 689.863 4537.84L995.655 4551.84C995.667 4552.41 995.711 4552.98 995.788 4553.55C996.129 4556.07 997.092 4558.43 998.578 4560.38C1000.06 4562.34 1002.02 4563.83 1004.24 4564.68C1006.46 4565.54 1008.87 4565.74 1011.22 4565.26C1013.57 4564.79 1015.78 4563.65 1017.61 4561.97C1019.44 4560.28 1020.84 4558.12 1021.65 4555.7C1022.46 4553.27 1022.66 4550.67 1022.24 4548.17C1021.81 4545.67 1020.76 4543.35 1019.21 4541.45C1017.65 4539.56 1015.65 4538.16 1013.4 4537.39L1062.15 4319.15C1063.44 4319.33 1064.75 4319.3 1066.04 4319.06C1068.44 4318.62 1070.7 4317.5 1072.59 4315.81C1074.47 4314.13 1075.9 4311.93 1076.73 4309.46L1208.94 4343.16C1208.76 4344.51 1208.76 4345.87 1208.95 4347.2C1209.44 4350.97 1211.31 4354.34 1214.15 4356.56C1216.98 4358.79 1220.55 4359.69 1224.08 4359.06C1227.6 4358.44 1230.78 4356.35 1232.92 4353.24C1235.07 4350.14 1236 4346.28 1235.51 4342.51L1411.7 4287.11C1412.68 4290.3 1414.68 4293 1417.36 4294.72C1420.03 4296.44 1423.21 4297.08 1426.34 4296.52C1428.27 4296.16 1430.12 4295.35 1431.75 4294.15L1542.75 4440.75C1541.1 4442.5 1539.88 4444.67 1539.21 4447.05C1538.55 4449.43 1538.46 4451.94 1538.96 4454.33C1539.45 4456.73 1540.52 4458.93 1542.05 4460.72C1543.58 4462.52 1545.52 4463.85 1547.7 4464.6C1549.87 4465.34 1552.2 4465.46 1554.46 4464.96C1556.71 4464.45 1558.83 4463.33 1560.6 4461.71C1562.37 4460.09 1563.73 4458.02 1564.55 4455.69C1565.38 4453.37 1565.64 4450.87 1565.31 4448.44C1565.07 4446.68 1564.52 4444.99 1563.69 4443.47L1695.55 4341.35C1696.83 4342.97 1698.44 4344.24 1700.26 4345.09C1702.07 4345.93 1704.06 4346.32 1706.05 4346.23C1708.05 4346.14 1710.02 4345.58 1711.81 4344.57C1713.6 4343.56 1715.16 4342.14 1716.39 4340.41L1905.87 4466.67C1904.63 4469.25 1904.13 4472.15 1904.43 4475C1904.74 4477.84 1905.83 4480.5 1907.57 4482.64C1909.31 4484.77 1911.61 4486.28 1914.19 4486.97C1916.77 4487.67 1919.5 4487.51 1922.04 4486.52C1924.57 4485.54 1926.79 4483.76 1928.41 4481.44C1930.03 4479.11 1930.98 4476.33 1931.13 4473.46C1931.28 4470.59 1930.63 4467.76 1929.27 4465.33C1927.9 4462.9 1925.87 4460.98 1923.45 4459.82L2034.09 4128.31C2035.82 4128.76 2037.62 4128.81 2039.39 4128.48C2039.75 4128.42 2040.11 4128.33 2040.46 4128.22L2205.19 4229.12C2203.91 4232.05 2203.56 4235.33 2204.21 4238.44C2204.86 4241.56 2206.46 4244.33 2208.76 4246.3C2211.07 4248.28 2213.94 4249.36 2216.93 4249.37C2219.91 4249.38 2222.84 4248.31 2225.25 4246.34C2227.65 4244.38 2229.39 4241.62 2230.2 4238.51C2231.01 4235.39 2230.83 4232.11 2229.69 4229.17C2228.56 4226.24 2226.53 4223.82 2223.94 4222.3C2221.34 4220.78 2218.33 4220.24 2215.37 4220.78C2214.92 4220.86 2214.47 4220.96 2214.03 4221.08L2073.38 3792.47L2074.19 3791.91L2072.91 3791.05L2071.28 3786.06L2070.89 3789.68L1860.07 3647.87C1861.05 3645.85 1861.59 3643.62 1861.63 3641.37C1861.67 3639.11 1861.21 3636.89 1860.3 3634.89C1859.38 3632.88 1858.04 3631.15 1856.37 3629.83C1854.7 3628.5 1852.75 3627.63 1850.69 3627.27L1869.99 3414.1C1871.78 3414.08 1873.56 3413.67 1875.22 3412.9C1876.88 3412.12 1878.39 3411 1879.66 3409.6C1880.92 3408.2 1881.92 3406.55 1882.59 3404.75C1883.26 3402.94 1883.59 3401.02 1883.56 3399.09C1883.53 3397.17 1883.14 3395.28 1882.41 3393.54C1881.68 3391.8 1880.63 3390.24 1879.33 3388.96C1878.02 3387.68 1876.47 3386.7 1874.79 3386.08C1873.11 3385.46 1871.32 3385.21 1869.52 3385.35L2086.14 2846.98C2088.4 2847.73 2090.83 2847.81 2093.17 2847.21C2095.51 2846.61 2097.67 2845.36 2099.43 2843.58C2101.19 2841.8 2102.5 2839.56 2103.2 2837.08C2103.9 2834.61 2103.98 2832 2103.43 2829.52C2102.88 2827.04 2101.72 2824.78 2100.06 2822.97C2098.41 2821.16 2096.33 2819.87 2094.03 2819.24C2091.73 2818.6 2089.3 2818.64 2086.98 2819.35C2084.67 2820.06 2082.56 2821.42 2080.88 2823.28L1736.65 2525.32C1738.49 2522.41 1739.3 2518.9 1738.92 2515.46C1738.55 2512.01 1737.02 2508.86 1734.62 2506.59L1848.68 2341.01C1850.3 2342.04 1852.12 2342.68 1854 2342.89C1855.89 2343.1 1857.81 2342.88 1859.63 2342.23C1861.45 2341.59 1863.14 2340.53 1864.57 2339.15C1866 2337.76 1867.14 2336.07 1867.93 2334.18C1868.72 2332.3 1869.12 2330.27 1869.13 2328.22C1869.13 2326.18 1868.72 2324.17 1867.94 2322.32C1867.16 2320.48 1866.01 2318.85 1864.59 2317.54C1863.16 2316.22 1861.48 2315.26 1859.66 2314.71L1895.06 2132.53C1896.21 2132.64 1897.36 2132.6 1898.51 2132.39C1900.27 2132.1 1901.98 2131.44 1903.52 2130.44C1905.06 2129.44 1906.41 2128.13 1907.49 2126.58C1908.57 2125.02 1909.35 2123.26 1909.8 2121.4C1910.24 2119.54 1910.34 2117.61 1910.08 2115.72C1909.83 2113.83 1909.22 2112.03 1908.31 2110.42C1907.39 2108.8 1906.17 2107.41 1904.74 2106.32C1903.3 2105.23 1901.67 2104.46 1899.94 2104.06C1898.2 2103.66 1896.41 2103.64 1894.65 2103.99C1893.94 2104.13 1893.24 2104.33 1892.56 2104.58L1772.34 1800.55C1774.25 1799.4 1775.88 1797.79 1777.1 1795.84C1778.32 1793.89 1779.09 1791.67 1779.35 1789.35C1779.6 1787.04 1779.33 1784.71 1778.57 1782.56C1777.8 1780.42 1776.55 1778.51 1774.93 1777.02C1773.32 1775.52 1771.38 1774.47 1769.28 1773.97C1767.18 1773.46 1764.99 1773.52 1762.89 1774.12C1760.79 1774.72 1758.84 1775.85 1757.22 1777.43C1755.59 1779 1754.33 1780.96 1753.55 1783.15L1582.47 1735.12C1582.86 1733.34 1582.94 1731.5 1582.71 1729.7C1582.45 1727.83 1581.86 1726.04 1580.96 1724.44C1580.06 1722.84 1578.87 1721.45 1577.46 1720.36C1576.05 1719.26 1574.45 1718.48 1572.74 1718.06C1571.03 1717.64 1569.25 1717.58 1567.51 1717.9C1565.76 1718.22 1564.09 1718.9 1562.57 1719.91C1561.05 1720.92 1559.73 1722.23 1558.67 1723.77C1557.62 1725.32 1556.85 1727.06 1556.42 1728.91C1555.98 1730.75 1555.89 1732.66 1556.14 1734.53L1556.26 1735.12L1373.44 1800.2C1372.36 1798.13 1370.82 1796.4 1368.95 1795.15C1367.07 1793.91 1364.93 1793.19 1362.71 1793.07C1360.48 1792.95 1358.25 1793.43 1356.22 1794.46C1354.18 1795.49 1352.41 1797.05 1351.05 1798.98C1349.7 1800.92 1348.8 1803.18 1348.45 1805.55C1348.1 1807.92 1348.31 1810.34 1349.05 1812.57C1349.79 1814.81 1351.04 1816.8 1352.69 1818.36C1354.35 1819.92 1356.34 1821.01 1358.51 1821.52L1344.45 2090.91C1344.4 2090.9 1344.35 2090.89 1344.29 2090.88C1342.27 2091.26 1340.35 2092.12 1338.67 2093.4C1336.98 2094.69 1335.59 2096.36 1334.58 2098.29C1333.58 2100.23 1332.99 2102.37 1332.87 2104.56C1332.74 2106.75 1333.09 2108.93 1333.87 2110.93C1334.65 2112.93 1335.85 2114.7 1337.39 2116.11C1338.92 2117.51 1340.73 2118.52 1342.7 2119.04C1344.67 2119.57 1346.73 2119.6 1348.74 2119.14C1350.74 2118.68 1352.63 2117.73 1354.27 2116.38L1494.52 2285.34C1492.95 2287.21 1491.85 2289.48 1491.33 2291.92C1490.81 2294.36 1490.88 2296.88 1491.53 2299.25C1492.19 2301.62 1493.41 2303.75 1495.08 2305.43C1496.74 2307.12 1498.8 2308.3 1501.04 2308.86L1457.87 2640.8C1457.1 2640.79 1456.34 2640.86 1455.58 2641C1453.01 2641.46 1450.61 2642.71 1448.67 2644.6C1446.72 2646.48 1445.31 2648.91 1444.6 2651.61C1443.89 2654.3 1443.92 2657.13 1444.68 2659.77C1445.44 2662.41 1446.91 2664.73 1448.89 2666.46L1352.42 2818.93C1349.47 2817.22 1345.99 2816.79 1342.7 2817.73C1339.4 2818.67 1336.53 2820.91 1334.65 2824C1332.78 2827.09 1332.05 2830.79 1332.61 2834.37C1333.17 2837.94 1334.97 2841.12 1337.66 2843.27L1189.44 3098.82C1187.23 3097.66 1184.75 3097.19 1182.27 3097.46C1179.79 3097.74 1177.41 3098.75 1175.4 3100.37C1173.4 3102 1171.83 3104.19 1170.89 3106.69C1169.95 3109.18 1169.67 3111.89 1170.08 3114.52C1170.49 3117.14 1171.57 3119.57 1173.2 3121.54C1174.84 3123.51 1176.96 3124.93 1179.33 3125.66C1181.71 3126.39 1184.24 3126.39 1186.65 3125.66C1189.06 3124.93 1191.25 3123.5 1192.97 3121.53L1336.03 3241C1334.7 3243.18 1333.93 3245.69 1333.81 3248.27C1333.69 3250.84 1334.21 3253.38 1335.32 3255.63C1336.43 3257.88 1338.1 3259.76 1340.14 3261.05C1342.17 3262.35 1344.52 3263.03 1346.91 3263.01L1378.3 3732.11L1379.52 3731.98C1377.26 3732.4 1375.13 3733.43 1373.31 3734.97C1371.5 3736.52 1370.08 3738.52 1369.17 3740.8L1205.15 3687.67C1205.71 3685.03 1205.57 3682.29 1204.74 3679.76C1203.92 3677.24 1202.44 3675.03 1200.49 3673.39C1198.53 3671.76 1196.17 3670.75 1193.68 3670.5C1191.18 3670.25 1188.65 3670.76 1186.38 3671.97C1184.11 3673.17 1182.18 3675.04 1180.82 3677.34C1179.46 3679.65 1178.72 3682.3 1178.68 3684.99C1178.65 3687.69 1179.32 3690.33 1180.62 3692.6C1181.92 3694.87 1183.8 3696.69 1186.04 3697.84L1049.02 4074.22C1047.29 4073.8 1045.5 4073.75 1043.74 4074.07C1041.97 4074.4 1040.28 4075.1 1038.76 4076.13C1037.23 4077.15 1035.91 4078.49 1034.86 4080.07C1033.8 4081.64 1033.05 4083.41 1032.63 4085.28L877.002 4061.64C877.014 4060.86 876.97 4060.08 876.871 4059.31C876.547 4056.93 875.665 4054.68 874.307 4052.79C872.949 4050.89 871.16 4049.41 869.103 4048.47C867.047 4047.53 864.791 4047.17 862.544 4047.43C860.296 4047.68 858.13 4048.54 856.246 4049.92C854.362 4051.3 852.821 4053.16 851.765 4055.33C850.709 4057.49 850.173 4059.9 850.206 4062.32C850.239 4064.74 850.84 4067.09 851.953 4069.17C853.067 4071.24 854.657 4072.97 856.576 4074.19L680.706 4522.1C678.542 4521.4 676.235 4521.32 674.003 4521.85C671.772 4522.39 669.689 4523.52 667.953 4525.14C666.216 4526.77 664.883 4528.83 664.079 4531.14C663.275 4533.44 663.026 4535.92 663.357 4538.32V4538.32ZM876.731 4064.27L1032.29 4087.9C1032.24 4088.84 1032.28 4089.78 1032.4 4090.7C1032.77 4093.47 1033.89 4096.04 1035.63 4098.09L918.019 4240.85L868.644 4074.87C870.68 4073.92 872.481 4072.46 873.891 4070.61C875.301 4068.77 876.276 4066.59 876.731 4064.27V4064.27ZM1202.58 3693.48L1476.83 3877.79C1475.5 3880.52 1475 3883.61 1475.4 3886.61C1475.5 3887.3 1475.65 3887.98 1475.84 3888.65L1337.58 3952.32L1199.76 3696.42C1200.82 3695.59 1201.77 3694.6 1202.58 3693.48V3693.48ZM1360.47 3246.2C1360.34 3245.29 1360.13 3244.39 1359.85 3243.52L1383.01 3231.49L1547.65 3328.94L1360.02 3252.43C1360.6 3250.4 1360.75 3248.28 1360.47 3246.2V3246.2ZM1359.08 2833.93L1577.79 2848.2C1577.79 2848.87 1577.83 2849.53 1577.92 2850.18C1578.1 2851.54 1578.47 2852.86 1579 2854.1L1424 2954.43L1354.22 2842.78C1356.77 2840.54 1358.5 2837.39 1359.08 2833.93V2833.93ZM1361.02 1821.81C1363.68 1821.89 1366.33 1821.11 1368.62 1819.58C1370.91 1818.04 1372.73 1815.82 1373.87 1813.2L1488.69 1861.79L1350.74 2091.48C1349.53 2091.06 1348.26 2090.84 1346.97 2090.83L1355.39 1929.69L1361.02 1821.81ZM2077.28 2836.19C2077.55 2837.82 2078.09 2839.39 2078.87 2840.81L1852.09 3021.65L1845.24 2878.1C1848.42 2877.52 1851.33 2875.73 1853.44 2873.06C1855.54 2870.4 1856.7 2867.03 1856.7 2863.58L2077.28 2836.19ZM1424.97 4267.93L1561.5 4214.89L1435.89 4274.7C1434.75 4272.68 1433.16 4271 1431.26 4269.82C1429.35 4268.64 1427.19 4267.99 1424.97 4267.93ZM1220.22 4330.56C1218.46 4330.88 1216.76 4331.57 1215.24 4332.6L1154.28 4244.32L1390.35 4081.86C1390.92 4082.66 1391.57 4083.39 1392.29 4084.03L1229.34 4332.39C1226.63 4330.62 1223.39 4329.97 1220.22 4330.56V4330.56ZM1061.58 4290.78C1058.66 4291.43 1056 4293.1 1054.02 4295.53C1052.03 4297.96 1050.85 4301.01 1050.64 4304.2C1050.43 4307.39 1051.21 4310.53 1052.86 4313.14C1054.51 4315.75 1056.93 4317.67 1059.75 4318.6L1011.64 4533.9L1045.2 4103.51L1061.58 4290.78ZM1074.78 4295.9C1073.53 4294.16 1071.92 4292.76 1070.06 4291.82C1068.21 4290.88 1066.16 4290.41 1064.09 4290.47L1047.61 4102.43C1049.16 4102.15 1050.65 4101.57 1052.02 4100.74L1150.73 4243.62L1074.78 4295.9ZM1054.08 4099.21C1055.48 4097.97 1056.63 4096.44 1057.48 4094.73C1058.32 4093.01 1058.85 4091.14 1059.01 4089.22L1387.74 4074.83L1387.8 4075.35C1388 4076.85 1388.42 4078.29 1389.05 4079.63L1152.83 4242.21L1054.08 4099.21ZM1394.81 3744.63L1526.77 3703.34C1527.41 3705.2 1528.42 3706.88 1529.71 3708.29C1531.01 3709.69 1532.57 3710.78 1534.3 3711.49L1505.62 3813.73L1393.41 3752.32C1394.53 3749.93 1395.02 3747.27 1394.81 3744.63V3744.63ZM1883.28 2120.62C1883.54 2122.52 1884.15 2124.34 1885.09 2125.96C1886.02 2127.59 1887.25 2128.98 1888.71 2130.07L1821.83 2253.66L1678.87 1949.95C1679.87 1949.25 1680.8 1948.41 1681.61 1947.46L1885.24 2110.8C1883.52 2113.74 1882.82 2117.23 1883.28 2120.62V2120.62ZM1790.76 2295.92C1790.33 2296 1789.91 2296.11 1789.49 2296.23L1679.18 1956.56L1820.33 2256.42L1798.4 2296.94C1796.02 2295.81 1793.36 2295.45 1790.76 2295.92V2295.92ZM1673.72 1952.11C1674.14 1952.03 1674.57 1951.92 1674.98 1951.8L1787.15 2297.23C1784.58 2298.54 1782.44 2300.68 1781.05 2303.34L1551.4 2197.28L1666.81 1951.45C1669 1952.32 1671.39 1952.55 1673.72 1952.11V1952.11ZM1517.58 2297.05L1779.25 2310.74C1779.26 2311.35 1779.3 2311.95 1779.37 2312.55C1779.7 2314.99 1780.62 2317.28 1782.03 2319.19L1657.43 2447.13L1514.71 2303.83C1516.21 2301.87 1517.21 2299.53 1517.62 2297.06L1517.58 2297.05ZM1657.41 2450.79L1715.23 2508.83C1714.08 2510.4 1713.24 2512.19 1712.76 2514.1C1712.28 2516.01 1712.17 2518 1712.43 2519.94C1712.56 2520.82 1712.76 2521.68 1713.02 2522.52L1468.72 2647.13C1468.41 2646.61 1468.06 2646.12 1467.68 2645.65L1657.41 2450.79ZM1470.75 2652.91C1470.59 2651.73 1470.28 2650.57 1469.85 2649.47L1714.04 2524.92C1715.25 2527.19 1717.03 2529.03 1719.17 2530.25L1630.89 2747.05L1470.14 2659.79C1470.88 2657.58 1471.11 2655.21 1470.81 2652.91L1470.75 2652.91ZM1632.03 2750.72L1830.91 2858.74C1830.54 2859.72 1830.26 2860.74 1830.08 2861.78L1604.52 2847.37C1604.54 2846.71 1604.51 2846.05 1604.44 2845.39C1604.14 2843.21 1603.38 2841.15 1602.21 2839.36C1601.04 2837.57 1599.49 2836.11 1597.69 2835.09L1632.03 2750.72ZM1885.11 3922.38C1882.22 3923.18 1879.63 3925 1877.77 3927.54L1728.97 3825.94L1841.5 3654.13C1843.75 3655.5 1846.34 3656.11 1848.95 3655.89L1885.11 3922.38ZM1555.57 4436.93L1576.84 4310.31L1692.45 4330.81C1692.18 4333.76 1692.76 4336.7 1694.14 4339.23L1562.21 4441.34C1560.48 4439.17 1558.16 4437.63 1555.57 4436.93V4436.93ZM1692.92 4328.19L1577.28 4307.68L1592.82 4215.24C1596.08 4215.47 1599.35 4214.4 1601.98 4212.23L1695.97 4322.31C1694.54 4324 1693.49 4326.01 1692.92 4328.19V4328.19ZM1437.72 4282.91C1437.78 4281.9 1437.74 4280.9 1437.62 4279.9C1437.48 4278.94 1437.25 4277.99 1436.94 4277.07L1582.16 4207.94C1583 4209.64 1584.17 4211.13 1585.59 4212.32C1587 4213.5 1588.63 4214.36 1590.38 4214.83L1574.86 4307.25L1437.72 4282.91ZM1414.33 4070.49C1414.16 4069.28 1413.85 4068.1 1413.41 4066.98L1525.64 3999.33L1588.4 4187.97C1586.47 4188.98 1584.78 4190.47 1583.47 4192.31L1412.95 4079.23C1414.25 4076.52 1414.74 4073.46 1414.33 4070.49V4070.49ZM1501.82 3886.55L1661.5 3909.15C1661.52 3909.54 1661.54 3909.9 1661.59 3910.27C1661.76 3911.48 1662.08 3912.66 1662.53 3913.78L1527.04 3995.49L1494.32 3897.09C1496.24 3896.08 1497.92 3894.59 1499.23 3892.76C1500.54 3890.93 1501.42 3888.8 1501.82 3886.55V3886.55ZM1593.1 2862C1594.09 2861.81 1595.06 2861.51 1596 2861.1L1670.8 3020.65L1547.81 3133.64C1546.69 3133.18 1545.51 3132.89 1544.31 3132.76L1589.99 2862.18C1591.03 2862.25 1592.07 2862.19 1593.1 2862V2862ZM1708.89 3126.55L1673.67 3129.31L1553.83 3138.7C1552.86 3137.19 1551.61 3135.9 1550.17 3134.91L1671.94 3023.05L1715.01 3114.92C1713.21 3116.21 1711.71 3117.94 1710.65 3119.97C1709.58 3121.99 1708.98 3124.25 1708.89 3126.55V3126.55ZM1598.22 2859.85C1599.82 2858.74 1601.2 2857.29 1602.25 2855.59C1603.31 2853.89 1604.03 2851.98 1604.36 2849.98L1782.21 2861.34L1829.93 2864.39C1829.93 2865.04 1829.97 2865.69 1830.05 2866.33C1830.36 2868.49 1831.12 2870.52 1832.28 2872.29L1672.77 3018.82L1598.22 2859.85ZM1556.01 3144.65C1555.85 3143.49 1555.55 3142.35 1555.13 3141.27L1709 3129.2C1709.41 3132.22 1710.72 3135 1712.72 3137.12L1648.25 3223.26L1555.7 3150.36C1556.16 3148.49 1556.27 3146.55 1556.01 3144.65V3144.65ZM1648.65 3226.94L1858.77 3392.44C1858.18 3393.48 1857.71 3394.59 1857.38 3395.74L1601.7 3342.97L1577.18 3337.91C1577.27 3336.78 1577.24 3335.65 1577.1 3334.53C1576.74 3331.69 1575.58 3329.07 1573.79 3326.99L1648.65 3226.94ZM1835.25 3645.23C1835.91 3648.12 1837.4 3650.71 1839.51 3652.61L1726.95 3824.54L1551.16 3704.5C1552.32 3702.16 1552.87 3699.54 1552.74 3696.93L1835.25 3645.23ZM2027.83 4104.57C2027.36 4105.1 2026.93 4105.67 2026.54 4106.27L1827.16 3992.92L1878.67 3946.6C1880.92 3949.01 1883.92 3950.45 1887.13 3950.65C1890.34 3950.85 1893.54 3949.8 1896.14 3947.69L1936.98 3996.35L2027.83 4104.57ZM1672.92 3893.65C1671.32 3893.95 1669.78 3894.55 1668.36 3895.43L1547.93 3708.88C1548.63 3708.24 1549.26 3707.53 1549.83 3706.75L1725.51 3826.74L1680.93 3894.86C1678.47 3893.57 1675.67 3893.14 1672.93 3893.65L1672.92 3893.65ZM1669.85 3921.32L1596.62 4186.7C1595.12 4186.42 1593.58 4186.41 1592.06 4186.67C1591.61 4186.76 1591.16 4186.88 1590.71 4187.01L1527.86 3998L1663.7 3916.1C1665.2 3918.48 1667.35 3920.3 1669.86 3921.32L1669.85 3921.32ZM1603.55 4190.56C1602.24 4189.16 1600.67 4188.08 1598.93 4187.38L1672.24 3921.97C1673.74 3922.26 1675.29 3922.27 1676.8 3921.99C1678.64 3921.65 1680.4 3920.91 1681.97 3919.81C1683.54 3918.72 1684.89 3917.28 1685.93 3915.61L1822.76 3993.46L1603.55 4190.56ZM1687.13 3913.31C1687.43 3912.57 1687.68 3911.8 1687.86 3911.02L1801.12 3925.98L1874.87 3935.85C1874.82 3936.79 1874.86 3937.73 1874.99 3938.66C1875.26 3940.8 1875.99 3942.84 1877.12 3944.6L1824.84 3991.62L1687.13 3913.31ZM1875.26 3933.13L1688.3 3908.22C1688.34 3907.28 1688.3 3906.34 1688.18 3905.41C1687.69 3901.7 1685.85 3898.38 1683.07 3896.17L1727.63 3828.12L1876.45 3929.81C1875.93 3930.86 1875.53 3931.98 1875.26 3933.13V3933.13ZM1548.97 3687.7C1546.99 3685.6 1544.43 3684.23 1541.65 3683.79L1550.68 3555.96L1565.16 3351.22C1565.35 3351.26 1565.55 3351.19 1565.75 3351.16C1568.42 3350.65 1570.91 3349.29 1572.88 3347.25L1734.15 3520.66L1548.97 3687.7ZM1541.33 3712.24C1542.92 3711.94 1544.45 3711.34 1545.86 3710.48L1665.79 3897.5C1664.99 3898.31 1664.29 3899.23 1663.69 3900.22L1507.86 3814.92L1536.66 3712.17C1538.18 3712.48 1539.74 3712.49 1541.28 3712.23L1541.33 3712.24ZM1606.98 4196.99C1606.62 4195.41 1606 4193.91 1605.16 4192.57L1825.18 3994.79L2025.4 4108.62C2024.51 4110.71 2024.09 4112.99 2024.18 4115.26L1606.98 4196.99ZM1834.88 3642.6L1552.38 3694.3C1552 3692.68 1551.35 3691.15 1550.47 3689.79L1735.88 3522.53L1838.07 3632.43C1835.84 3635.28 1834.69 3638.92 1834.88 3642.6V3642.6ZM1736.07 3518.94L1574.55 3345.24C1575.5 3343.81 1576.21 3342.22 1576.65 3340.54L1856.82 3398.4C1856.66 3399.67 1856.67 3400.96 1856.85 3402.21C1857.12 3404.36 1857.85 3406.39 1858.98 3408.16L1736.07 3518.94ZM1860.24 3390.29L1650.2 3224.85L1714.59 3138.82C1716.46 3140.18 1718.64 3140.99 1720.92 3141.18C1723.19 3141.36 1725.49 3140.91 1727.59 3139.87L1862.42 3388.19C1861.63 3388.8 1860.91 3389.51 1860.26 3390.28L1860.24 3390.29ZM1720.33 3112.58C1719.25 3112.78 1718.19 3113.13 1717.18 3113.62L1673.88 3021.24L1833.86 2874.33C1834.58 2875.09 1835.37 2875.75 1836.23 2876.31L1726.95 3113.15C1724.85 3112.38 1722.58 3112.19 1720.36 3112.6L1720.33 3112.58ZM1554.79 3153L1646.66 3225.37L1571.88 3325.27C1569.72 3323.58 1567.13 3322.65 1564.43 3322.59L1545.27 3161.15C1547.32 3160.68 1549.26 3159.69 1550.91 3158.28C1552.57 3156.87 1553.9 3155.07 1554.81 3153.02L1554.79 3153ZM1507.09 3817.55L1662.52 3902.6C1662.03 3903.84 1661.71 3905.15 1661.57 3906.48L1502.06 3883.88C1502.08 3883.17 1502.04 3882.45 1501.94 3881.74C1501.57 3879.01 1500.46 3876.47 1498.76 3874.43C1497.06 3872.39 1494.83 3870.93 1492.35 3870.24L1507.09 3817.55ZM1490.64 3898.36C1491.09 3898.27 1491.54 3898.15 1491.99 3898.02L1524.84 3996.8L1412.27 4064.66C1411.21 4062.98 1409.83 4061.57 1408.21 4060.52L1483.77 3897.69C1485.94 3898.56 1488.29 3898.8 1490.59 3898.38L1490.64 3898.36ZM1231.26 4333.97L1394.25 4085.52C1397.05 4087.21 1400.34 4087.74 1403.53 4087C1406.71 4086.27 1409.57 4084.32 1411.57 4081.53L1582.1 4194.57C1580.8 4197.28 1580.32 4200.34 1580.73 4203.31C1580.78 4203.73 1580.86 4204.14 1580.96 4204.55L1234.61 4339.09C1233.87 4337.13 1232.72 4335.38 1231.26 4333.97V4333.97ZM1437.27 4285.53L1574.35 4309.86L1553.07 4436.51C1550.07 4436.29 1547.07 4437.18 1544.56 4439.04L1433.55 4292.45C1435.38 4290.56 1436.69 4288.17 1437.33 4285.54L1437.27 4285.53ZM1703.85 4317.69C1701.66 4318.08 1699.57 4319.06 1697.8 4320.54L1605.17 4212.05L1728.3 4315.57L1716.66 4323.19C1715.23 4321.09 1713.28 4319.46 1711.02 4318.49C1708.76 4317.52 1706.28 4317.25 1703.85 4317.69V4317.69ZM1605.12 4208.6C1606.75 4205.94 1607.53 4202.79 1607.34 4199.65L2023.79 4118.07L2024.56 4118.54C2024.76 4119.3 2025.02 4120.05 2025.33 4120.77L1730.59 4314.1L1605.12 4208.6ZM2029.71 4102.83L1897.99 3945.94C1899.76 3943.89 1900.95 3941.35 1901.43 3938.63C1901.9 3935.91 1901.64 3933.12 1900.68 3930.59C1899.72 3928.06 1898.09 3925.9 1895.99 3924.37C1893.89 3922.83 1891.41 3921.99 1888.85 3921.94L1943.71 3883.47L2031.12 4101.86C2030.64 4102.14 2030.17 4102.44 2029.72 4102.78L2029.71 4102.83ZM1887.28 3919.86L1851.4 3655.4C1851.71 3655.31 1852.03 3655.2 1852.33 3655.09L1942.76 3880.98L1887.28 3919.86ZM1846.33 3627.31C1843.95 3627.74 1841.7 3628.86 1839.84 3630.54L1737.85 3520.79L1860.62 3410.08C1862.54 3412.13 1865.02 3413.48 1867.71 3413.95L1848.32 3627.11C1847.66 3627.11 1846.99 3627.18 1846.33 3627.29L1846.33 3627.31ZM1729.83 3138.52C1732.66 3136.4 1734.65 3133.23 1735.4 3129.64C1736.16 3126.05 1735.62 3122.33 1733.9 3119.22L1849.82 3026.71L1866.97 3385.83C1866.14 3386.07 1865.32 3386.4 1864.54 3386.81L1729.83 3138.52ZM1732.45 3117.1C1731.52 3115.99 1730.44 3115.03 1729.23 3114.28L1838.5 2877.46C1839.88 2878 1841.35 2878.28 1842.83 2878.31L1849.7 3023.55L1732.45 3117.1ZM1832.17 2856.32L1633.12 2748.27L1721.53 2531.3C1723.52 2531.96 1725.64 2532.11 1727.72 2531.73C1728.21 2531.65 1728.69 2531.53 1729.16 2531.38L1837.67 2851.09C1835.42 2852.27 1833.5 2854.07 1832.12 2856.32L1832.17 2856.32ZM1723.86 2503.33C1721.33 2503.79 1718.95 2505.03 1717.02 2506.88L1659.31 2448.94L1783.8 2321.17C1784.79 2322.08 1785.9 2322.82 1787.1 2323.38L1729.05 2503.47C1727.34 2503.05 1725.56 2503 1723.81 2503.32L1723.86 2503.33ZM1806.01 2307.7C1805.75 2305.8 1805.13 2303.98 1804.2 2302.36C1803.27 2300.74 1802.03 2299.34 1800.58 2298.25L1821.7 2259.24L1848.62 2316.52C1846.19 2318.21 1844.31 2320.67 1843.25 2323.54L1805.82 2312.59C1806.12 2310.97 1806.17 2309.31 1805.96 2307.69L1806.01 2307.7ZM1853.81 2314.37C1852.81 2314.55 1851.83 2314.85 1850.89 2315.27L1823.14 2256.46L1890.84 2131.37C1891.41 2131.64 1892.01 2131.86 1892.61 2132.05L1857.16 2314.22C1856.03 2314.11 1854.88 2314.16 1853.76 2314.36L1853.81 2314.37ZM1683.15 1945.31C1684.9 1942.31 1685.59 1938.76 1685.09 1935.33C1684.58 1931.89 1682.92 1928.8 1680.42 1926.63L1702.12 1892.02L1886.66 2108.59L1683.15 1945.31ZM1678.38 1925.18C1675.81 1923.7 1672.83 1923.19 1669.92 1923.73C1668.79 1923.94 1667.68 1924.31 1666.63 1924.81L1575.57 1744.78C1575.83 1744.63 1576.09 1744.48 1576.32 1744.31L1700.48 1890.02L1678.38 1925.18ZM1571.39 1746.32C1572.02 1746.2 1572.64 1746.03 1573.25 1745.82L1664.45 1926.12C1662.59 1927.49 1661.07 1929.33 1660.02 1931.47L1492.39 1860.53L1562.16 1744.39C1564.87 1746.2 1568.13 1746.89 1571.34 1746.31L1571.39 1746.32ZM1659.07 1933.95C1658.45 1936.03 1658.28 1938.22 1658.58 1940.35C1658.69 1941.22 1658.88 1942.06 1659.15 1942.89L1356.72 2096C1355.68 2094.61 1354.4 2093.45 1352.96 2092.57L1490.97 1862.8L1659.07 1933.95ZM1359.53 2102.76C1359.31 2101.16 1358.84 2099.61 1358.14 2098.2L1660.16 1945.25C1661.26 1947.29 1662.81 1948.99 1664.69 1950.21L1549.21 2196.14L1359.24 2108.42C1359.66 2106.57 1359.74 2104.65 1359.47 2102.79L1359.53 2102.76ZM1550.33 2199.64L1780.08 2305.73C1779.83 2306.5 1779.64 2307.29 1779.52 2308.1L1517.87 2294.39C1517.86 2293.77 1517.82 2293.15 1517.73 2292.53C1517.45 2290.44 1516.74 2288.46 1515.65 2286.72C1514.56 2284.98 1513.12 2283.53 1511.44 2282.47L1550.33 2199.64ZM1506.39 2309.18C1508.84 2308.73 1511.15 2307.56 1513.05 2305.79L1655.7 2449L1465.9 2643.86C1464.29 2642.53 1462.41 2641.62 1460.4 2641.21L1503.55 2309.36C1504.48 2309.4 1505.42 2309.33 1506.34 2309.16L1506.39 2309.18ZM1469.17 2662.26L1629.91 2749.55L1595.43 2834.09C1593.6 2833.47 1591.66 2833.29 1589.74 2833.56C1587.81 2833.83 1585.96 2834.55 1584.3 2835.66L1466.7 2665.63C1467.65 2664.62 1468.47 2663.48 1469.13 2662.24L1469.17 2662.26ZM1580.23 2856.42C1582.01 2859.06 1584.6 2860.94 1587.56 2861.76L1541.81 3132.68C1541.48 3132.72 1541.16 3132.75 1540.82 3132.82C1539.29 3133.1 1537.8 3133.67 1536.44 3134.49L1425.37 2956.6L1580.23 2856.42ZM1534.37 3136.07C1531.95 3138.22 1530.28 3141.19 1529.63 3144.46L1196.72 3111.76C1196.77 3109.57 1196.36 3107.4 1195.5 3105.43L1423.18 2958.05L1534.37 3136.07ZM1196.45 3114.42L1529.37 3147.11C1529.35 3147.91 1529.39 3148.71 1529.49 3149.51C1529.62 3150.42 1529.83 3151.32 1530.12 3152.2L1383.16 3228.51L1195.56 3117.47C1195.95 3116.49 1196.25 3115.46 1196.45 3114.42ZM1531.13 3154.57C1532.31 3156.75 1534.03 3158.54 1536.09 3159.75C1538.15 3160.96 1540.49 3161.55 1542.87 3161.47L1562.01 3322.74L1561.89 3322.72C1560.09 3323.04 1558.36 3323.76 1556.81 3324.83C1555.26 3325.89 1553.92 3327.28 1552.87 3328.9L1385.8 3230.02L1531.13 3154.57ZM1562.62 3351.32L1539.16 3683.65C1538.59 3683.68 1538.02 3683.74 1537.46 3683.83C1535.71 3684.15 1534.04 3684.83 1532.52 3685.84C1531.01 3686.85 1529.69 3688.16 1528.63 3689.71C1527.58 3691.25 1526.81 3693 1526.38 3694.84C1525.94 3696.69 1525.85 3698.6 1526.1 3700.46C1526.11 3700.57 1526.13 3700.68 1526.16 3700.79L1394.39 3742.01C1393.54 3738.73 1391.6 3735.93 1388.94 3734.1L1559.97 3350.88C1560.84 3351.12 1561.73 3351.27 1562.62 3351.32V3351.32ZM1392.11 3754.62L1504.91 3816.35L1489.91 3869.75C1488.86 3869.67 1487.8 3869.72 1486.76 3869.91C1484.65 3870.3 1482.64 3871.22 1480.91 3872.6L1390.46 3756.54C1391.06 3755.95 1391.62 3755.31 1392.11 3754.62ZM1476.76 3891.1C1477.86 3893.36 1479.52 3895.24 1481.55 3896.56L1405.98 4059.39C1403.81 4058.53 1401.45 4058.3 1399.14 4058.72C1397.89 4058.96 1396.68 4059.38 1395.53 4059.97L1338.81 3954.64L1476.76 3891.1ZM1393.38 4061.34C1391.75 4062.6 1390.39 4064.22 1389.4 4066.1C1388.41 4067.97 1387.81 4070.04 1387.65 4072.16L1059.01 4086.56L1058.94 4085.81C1058.85 4085.12 1058.71 4084.44 1058.52 4083.77L1336.5 3955.72L1393.38 4061.34ZM1037.45 4099.82C1039.03 4101.1 1040.86 4101.97 1042.81 4102.37L1008.93 4536.73C1008.33 4536.75 1007.73 4536.81 1007.13 4536.93C1006.81 4536.98 1006.51 4537.07 1006.2 4537.14L918.889 4243.76L1037.45 4099.82ZM1003.84 4538.01C1001.75 4539.01 999.923 4540.57 998.519 4542.52C997.115 4544.47 996.185 4546.76 995.815 4549.17L690.023 4535.18C690.01 4534.61 689.965 4534.04 689.89 4533.47C689.497 4530.63 688.315 4528 686.497 4525.92L916.964 4246.09L1003.84 4538.01ZM1077.35 4302.43C1077.15 4300.93 1076.72 4299.49 1076.09 4298.15L1152.18 4245.78L1213.23 4334.24C1211.48 4335.96 1210.16 4338.14 1209.42 4340.55L1077.27 4306.86C1077.51 4305.39 1077.54 4303.9 1077.35 4302.43ZM1415.76 4271.51C1414.03 4273.1 1412.7 4275.13 1411.87 4277.4C1411.05 4279.67 1410.77 4282.11 1411.05 4284.5L1260.02 4332.01L1415.76 4271.51ZM1719.05 4329.4C1718.87 4328.01 1718.5 4326.66 1717.93 4325.4L1730.37 4317.25L1898.86 4458.89L1717.66 4338.18C1718.98 4335.46 1719.47 4332.39 1719.05 4329.4V4329.4ZM1921.11 4459.02C1918.82 4458.45 1916.41 4458.54 1914.14 4459.29C1911.86 4460.04 1909.79 4461.41 1908.14 4463.27L1732.65 4315.75L2026.59 4122.97C2027.93 4124.93 2029.71 4126.48 2031.79 4127.47L1921.11 4459.02ZM2211.81 4222.05C2209.71 4223.14 2207.89 4224.77 2206.53 4226.81L2043.56 4127C2046.05 4125.59 2048.08 4123.4 2049.38 4120.73C2050.68 4118.05 2051.19 4115.03 2050.83 4112.08C2050.47 4109.14 2049.26 4106.4 2047.38 4104.26C2045.49 4102.13 2043.01 4100.69 2040.29 4100.15L2072.61 3797.87L2211.81 4222.05ZM2070.48 3794.6L2037.85 4099.84C2036.37 4099.84 2034.88 4100.11 2033.47 4100.65L1945.89 3881.94L2070.48 3794.6ZM2069.64 3791.99L1944.86 3879.47L1854.6 3653.97C1856.21 3653 1857.62 3651.7 1858.75 3650.14L2069.64 3791.99ZM1869.17 3379.83L1852.22 3024.8L2080.36 2842.93C2081.39 2844.18 2082.63 2845.22 2084 2846L1869.17 3379.83ZM2079.36 2825.39C2077.83 2827.82 2077.01 2830.67 2077 2833.56L1856.5 2860.93C1855.87 2857.29 1853.94 2854.09 1851.13 2852C1848.31 2849.9 1844.82 2849.09 1841.39 2849.71C1840.91 2849.8 1840.43 2849.92 1839.95 2850.06L1731.45 2530.35C1732.84 2529.6 1734.11 2528.6 1735.21 2527.4L2079.36 2825.39ZM1732.78 2505.02C1732.32 2504.72 1731.83 2504.46 1731.33 2504.23L1789.39 2324.12C1792.53 2324.88 1795.85 2324.38 1798.73 2322.72C1801.61 2321.06 1803.86 2318.35 1805.06 2315.09L1842.49 2326.03C1842.19 2327.65 1842.15 2329.31 1842.36 2330.93C1842.8 2334.23 1844.31 2337.22 1846.62 2339.4L1732.78 2505.02ZM1890.26 2105.62C1889.68 2105.94 1889.12 2106.32 1888.6 2106.73L1703.64 1889.59L1759.56 1800.65C1762.13 1802.13 1765.1 1802.64 1768.02 1802.11C1768.73 1801.97 1769.43 1801.77 1770.11 1801.52L1890.26 2105.62ZM1752.8 1785.71C1752.52 1787.28 1752.49 1788.87 1752.69 1790.44C1753.17 1793.95 1754.84 1797.1 1757.39 1799.3L1701.82 1887.7L1578.23 1742.65C1579.67 1741.25 1580.81 1739.54 1581.59 1737.65L1752.8 1785.71ZM1556.89 1737.67C1557.6 1739.61 1558.7 1741.36 1560.12 1742.77L1489.98 1859.53L1374.67 1810.7C1375.12 1808.83 1375.22 1806.89 1374.97 1804.99C1374.85 1804.19 1374.67 1803.39 1374.43 1802.62L1556.89 1737.67ZM1356.05 2114.66C1356.96 2113.56 1357.72 2112.32 1358.3 2110.98L1547.99 2198.59L1509.12 2281.37C1507.01 2280.57 1504.73 2280.36 1502.5 2280.76C1500.27 2281.15 1498.15 2282.15 1496.34 2283.65L1356.05 2114.66ZM1450.97 2668.05C1453.08 2669.29 1455.49 2669.87 1457.92 2669.73C1460.35 2669.59 1462.72 2668.73 1464.76 2667.26L1582.31 2837.24C1580.04 2839.45 1578.52 2842.4 1577.98 2845.6L1359.27 2831.33C1359.27 2830.67 1359.23 2830.02 1359.14 2829.37C1358.68 2825.88 1357.02 2822.73 1354.48 2820.54L1450.97 2668.05ZM1339.79 2844.78C1342.26 2846.07 1345.07 2846.5 1347.81 2845.99C1349.35 2845.71 1350.83 2845.15 1352.2 2844.32L1421.86 2955.87L1194.28 3103.17C1193.51 3102.03 1192.59 3101.02 1191.53 3100.18L1339.79 2844.78ZM1196.71 3121.21L1380.42 3229.95L1358.86 3241.15C1357.83 3239.24 1356.39 3237.63 1354.66 3236.44C1352.93 3235.26 1350.96 3234.52 1348.9 3234.31C1346.84 3234.09 1344.74 3234.39 1342.79 3235.18C1340.83 3235.98 1339.06 3237.25 1337.62 3238.89L1196.71 3121.21ZM1349.42 3262.77C1351.48 3262.35 1353.43 3261.43 1355.11 3260.06C1356.8 3258.7 1358.17 3256.94 1359.13 3254.92L1550.99 3333.15C1550.08 3336.4 1550.25 3339.86 1551.48 3342.92C1552.7 3345.98 1554.9 3348.46 1557.7 3349.92L1386.76 3732.82C1384.88 3731.98 1382.83 3731.63 1380.77 3731.79L1349.42 3262.77ZM1368.4 3743.34C1367.81 3746.12 1368 3749 1368.93 3751.63C1369.87 3754.25 1371.51 3756.5 1373.66 3758.09C1375.8 3759.69 1378.35 3760.55 1380.99 3760.58C1383.62 3760.61 1386.23 3759.81 1388.48 3758.26L1479.03 3874.46C1478.72 3874.8 1478.44 3875.16 1478.17 3875.53L1203.92 3691.21C1204.08 3690.89 1204.23 3690.55 1204.37 3690.21L1368.4 3743.34ZM1188.33 3698.75C1191.4 3699.64 1194.7 3699.3 1197.61 3697.79L1335.26 3953.42L1057.58 4081.27C1056.22 4078.48 1054.03 4076.27 1051.34 4074.98L1188.33 3698.75ZM858.792 4075.28C860.933 4076.11 863.25 4076.32 865.52 4075.9C865.773 4075.86 866.005 4075.79 866.247 4075.74L916.069 4243.18L684.668 4524.16C684.135 4523.75 683.575 4523.39 682.993 4523.07L858.792 4075.28Z" stroke="#08FDD8" stroke-miterlimit="10"/>
<path d="M1079.36 1163.43C1080.32 1163.91 1081.23 1164.48 1082.06 1165.13L1265.06 996.92C1263.36 995.041 1262.2 992.804 1261.66 990.407C1261.12 988.01 1261.24 985.527 1261.98 983.179L1178.39 946.9L1079.36 1163.43Z" stroke="#08FDD8" stroke-miterlimit="10"/>
<path d="M1601.43 1027.33C1601.19 1026.86 1600.98 1026.39 1600.8 1025.9C1600.22 1024.28 1599.94 1022.58 1599.97 1020.87L1293.32 990.334C1292.67 993.307 1291.06 996.026 1288.71 998.132L1404.8 1132.48L1601.43 1027.33Z" stroke="#08FDD8" stroke-miterlimit="10"/>
<path d="M1279.74 757.254C1278.01 758.838 1275.91 760.028 1273.59 760.732C1272.59 761.049 1271.56 761.273 1270.52 761.402L1273.59 844.636L1278.47 972.416C1279.36 972.469 1280.25 972.593 1281.13 972.787L1341.41 806.005L1279.74 757.254Z" stroke="#08FDD8" stroke-miterlimit="10"/>
<path d="M1284.03 973.671C1286.08 974.503 1287.91 975.722 1289.42 977.248C1290.93 978.775 1292.08 980.576 1292.8 982.537C1293.39 984.156 1293.68 985.859 1293.65 987.569L1600.28 1018.12C1600.72 1016.07 1601.61 1014.13 1602.91 1012.42L1343.93 807.973L1284.03 973.671Z" stroke="#08FDD8" stroke-miterlimit="10"/>
<path d="M1263.12 980.556C1265.03 977.068 1268.35 974.416 1272.35 973.172C1273.35 972.858 1274.38 972.633 1275.42 972.502L1267.49 761.531C1266.14 761.454 1264.81 761.224 1263.52 760.846L1179.6 944.291L1263.12 980.556Z" stroke="#08FDD8" stroke-miterlimit="10"/>
<path d="M1283.74 741.73C1284.56 743.963 1284.8 746.343 1284.44 748.678C1284.08 751.012 1283.12 753.233 1281.65 755.158L1342.52 803.211L1429.8 561.778C1429.06 561.463 1428.35 561.096 1427.68 560.68L1325.49 681.404L1279.54 735.672C1281.46 737.341 1282.9 739.422 1283.74 741.73V741.73Z" stroke="#08FDD8" stroke-miterlimit="10"/>
<path d="M527.328 1146.38L420.13 1091.57C418.167 1094.18 415.355 1096.15 412.103 1097.17V1097.17L454.561 1264.64C455.675 1263.97 456.873 1263.43 458.129 1263.03C460.179 1262.38 462.35 1262.12 464.51 1262.27L527.328 1146.38Z" stroke="#08FDD8" stroke-miterlimit="10"/>
<path d="M448.41 1271.34C449.228 1269.56 450.414 1267.94 451.901 1266.58L418.839 1136.15L409.12 1097.82C406.565 1098.15 403.961 1097.91 401.526 1097.12C399.09 1096.33 396.896 1095.01 395.126 1093.27L301.938 1158.19L448.41 1271.34Z" stroke="#08FDD8" stroke-miterlimit="10"/>
<path d="M663.529 1203.87C664.736 1203.5 665.984 1203.25 667.25 1203.14L668.189 1175.13L677.969 883.01C676.631 882.856 675.319 882.55 674.063 882.098L531.281 1145.26L655.84 1208.95C657.793 1206.57 660.473 1204.81 663.529 1203.87V1203.87Z" stroke="#08FDD8" stroke-miterlimit="10"/>
<path d="M99.0902 1013.44C98.3945 1013.65 97.6858 1013.81 96.9681 1013.94L102.643 1067.17L123.802 1265.52C126.071 1265.51 128.316 1265.94 130.393 1266.79C132.47 1267.63 134.333 1268.87 135.858 1270.43L297.109 1158.07L105.257 1009.82C103.528 1011.45 101.418 1012.69 99.0902 1013.44Z" stroke="#08FDD8" stroke-miterlimit="10"/>
<path d="M1076.6 1162.35L1175.73 945.674L964.732 854.087C963.035 856.781 960.47 858.915 957.397 860.188L1067.95 1162.03C1070.81 1161.4 1073.8 1161.51 1076.6 1162.35V1162.35Z" stroke="#08FDD8" stroke-miterlimit="10"/>
<path d="M447.441 1274.18L299.493 1159.9L137.642 1272.64C138.271 1273.6 138.786 1274.61 139.18 1275.67C139.577 1276.77 139.835 1277.91 139.949 1279.07L447.118 1278.21C447.032 1276.86 447.141 1275.5 447.441 1274.18V1274.18Z" stroke="#08FDD8" stroke-miterlimit="10"/>
<path d="M107.194 1007.73L299.585 1156.36L393.297 1091.09C392.568 1090.07 391.984 1088.97 391.559 1087.81C390.695 1085.43 390.484 1082.9 390.944 1080.43L108.932 1004.73C108.476 1005.79 107.893 1006.79 107.194 1007.73V1007.73Z" stroke="#08FDD8" stroke-miterlimit="10"/>
<path d="M1500.28 1247.38L1404.09 1136.05L1301.27 1191C1301.51 1191.46 1301.72 1191.94 1301.9 1192.42C1302.8 1194.89 1302.99 1197.53 1302.44 1200.08L1496.48 1252.64C1497.33 1250.66 1498.62 1248.86 1500.28 1247.38V1247.38Z" stroke="#08FDD8" stroke-miterlimit="10"/>
<path d="M654.318 1211.3L529.943 1147.72L467.51 1262.79C469.933 1263.4 472.168 1264.53 474.037 1266.08C475.906 1267.63 477.357 1269.57 478.274 1271.74L652.749 1220.02C652.304 1217.03 652.851 1213.99 654.318 1211.3V1211.3Z" stroke="#08FDD8" stroke-miterlimit="10"/>
<path d="M1281.47 1183.07C1282.23 1182.83 1283.01 1182.65 1283.8 1182.53L1278.51 1002.28C1277.02 1002.38 1275.52 1002.27 1274.05 1001.97L1209.68 1189.52L1270.52 1195.83C1270.81 1192.95 1272.01 1190.21 1273.95 1187.95C1275.89 1185.68 1278.51 1183.99 1281.47 1183.07Z" stroke="#08FDD8" stroke-miterlimit="10"/>
<path d="M1271.21 1001.17C1270 1000.7 1268.86 1000.1 1267.81 999.372L1084.2 1167.17C1086.64 1169.91 1087.93 1173.38 1087.85 1176.93L1206.65 1189.25L1271.21 1001.17Z" stroke="#08FDD8" stroke-miterlimit="10"/>
<path d="M678.368 1206.04C680.985 1207.83 682.957 1210.32 684.027 1213.17C684.104 1213.38 684.15 1213.59 684.212 1213.81L912.817 1191L1055.55 1176.74C1055.51 1173.6 1056.54 1170.51 1058.49 1167.94L839.127 995.295L678.368 1206.04Z" stroke="#08FDD8" stroke-miterlimit="10"/>
<path d="M422.16 1078.14C423.475 1081.75 423.261 1085.68 421.561 1089.13L528.666 1143.87L671.402 880.857C670.42 880.291 669.507 879.627 668.68 878.876L420.254 1074.64C421.052 1075.72 421.693 1076.9 422.16 1078.14V1078.14Z" stroke="#08FDD8" stroke-miterlimit="10"/>
<path d="M1432.61 562.704L1344.96 805.15L1604.84 1010.42C1606.16 1009.23 1607.69 1008.27 1609.36 1007.57L1440.21 562.89C1437.7 563.39 1435.09 563.327 1432.61 562.704V562.704Z" stroke="#08FDD8" stroke-miterlimit="10"/>
<path d="M840.864 993.028L1060.43 1165.9C1061.77 1164.67 1063.33 1163.66 1065.04 1162.93L954.49 861.072C950.473 861.97 946.238 861.398 942.664 859.475L840.864 993.028Z" stroke="#08FDD8" stroke-miterlimit="10"/>
<path d="M685.15 882.34C683.795 882.771 682.382 883.025 680.952 883.096L670.187 1203.14C672.125 1203.31 674.016 1203.79 675.769 1204.57L836.866 993.499L691.255 878.862C689.531 880.436 687.443 881.625 685.15 882.34V882.34Z" stroke="#08FDD8" stroke-miterlimit="10"/>
<path d="M1286.39 999.842C1285.24 1000.55 1284 1001.12 1282.7 1001.54C1282.3 1001.67 1281.9 1001.75 1281.48 1001.85L1286.79 1182.29C1289.35 1182.31 1291.87 1182.89 1294.14 1183.99C1296.41 1185.09 1298.36 1186.67 1299.84 1188.6L1402.2 1133.87L1286.39 999.842Z" stroke="#08FDD8" stroke-miterlimit="10"/>
<path d="M109.194 994.44L266.261 959.687L23.8012 743.755C22.3834 744.891 20.7588 745.784 19.0034 746.392L91.0479 984.547C94.8495 983.906 98.7732 984.552 102.104 986.368C105.435 988.184 107.951 991.048 109.194 994.44V994.44Z" stroke="#08FDD8" stroke-miterlimit="10"/>
<path d="M133.214 1292.72C131.945 1293.54 130.557 1294.2 129.092 1294.66C128.389 1294.88 127.669 1295.05 126.939 1295.17L152.559 1539.16C156.459 1539.15 160.233 1540.44 163.185 1542.81L273.197 1444.72L133.214 1292.72Z" stroke="#08FDD8" stroke-miterlimit="10"/>
<path d="M1294.03 1210.56C1293.33 1210.89 1292.6 1211.18 1291.86 1211.43C1288.63 1212.44 1285.12 1212.48 1281.87 1211.53L1130.47 1548.99C1131.86 1549.67 1133.13 1550.53 1134.26 1551.55L1390.46 1351.02L1294.03 1210.56Z" stroke="#08FDD8" stroke-miterlimit="10"/>
<path d="M1608.64 1034.34C1606.36 1033.25 1604.4 1031.66 1602.92 1029.72L1406.7 1134.65L1502.6 1245.65C1504.58 1244.44 1506.82 1243.64 1509.17 1243.33C1511.52 1243.01 1513.92 1243.18 1516.19 1243.83L1608.64 1034.34Z" stroke="#08FDD8" stroke-miterlimit="10"/>
<path d="M662.945 1237.36L586.625 1437.45L604.279 1460.73C605.185 1460.25 606.138 1459.85 607.123 1459.53C609.357 1458.83 611.731 1458.59 614.074 1458.85L662.945 1237.36Z" stroke="#08FDD8" stroke-miterlimit="10"/>
<path d="M118.728 1266.31C119.426 1266.09 120.14 1265.92 120.865 1265.79L94.0312 1014.23C92.8527 1014.23 91.6776 1014.11 90.5252 1013.88L9.02347 1253.76L108.594 1275.7C109.385 1273.52 110.712 1271.53 112.47 1269.9C114.228 1268.27 116.37 1267.04 118.728 1266.31V1266.31Z" stroke="#08FDD8" stroke-miterlimit="10"/>
<path d="M966.039 851.578L1176.9 943.123L1260.8 759.72C1257.64 758.144 1255.15 755.635 1253.71 752.593L966.515 842.983C967.276 845.829 967.11 848.82 966.039 851.578V851.578Z" stroke="#08FDD8" stroke-miterlimit="10"/>
<path d="M5.22478 1255.76L-250.691 1199.31C-251.632 1201.91 -253.33 1204.22 -255.596 1205.98L-71.9558 1451.86C-70.825 1451.17 -69.6059 1450.62 -68.3267 1450.21C-65.8557 1449.43 -63.2164 1449.22 -60.6378 1449.6L5.22478 1255.76Z" stroke="#08FDD8" stroke-miterlimit="10"/>
<path d="M1205.73 1191.9L1087.52 1179.62C1087.07 1181.66 1086.16 1183.59 1084.86 1185.29C1083.56 1186.99 1081.89 1188.41 1079.96 1189.47L1150.51 1327.23C1153.37 1326.48 1156.4 1326.48 1159.26 1327.23L1205.73 1191.9Z" stroke="#08FDD8" stroke-miterlimit="10"/>
<path d="M1422.36 555.263C1421.49 553.81 1420.91 552.227 1420.63 550.588L1077.71 572.412L1197.66 693.307L1422.36 555.263Z" stroke="#08FDD8" stroke-miterlimit="10"/>
<path d="M1590.51 1633.14L1591.33 1632.93L1513.19 1273.04C1510.82 1273.26 1508.42 1272.99 1506.16 1272.25C1503.91 1271.51 1501.86 1270.32 1500.17 1268.76L1394.42 1351.52L1588.34 1634C1589.04 1633.66 1589.77 1633.37 1590.51 1633.14V1633.14Z" stroke="#08FDD8" stroke-miterlimit="10"/>
<path d="M1431.38 534.009C1434.59 533.002 1438.06 532.956 1441.3 533.877C1444.54 534.798 1447.39 536.639 1449.44 539.141L1528.68 340.443C1526.18 339.327 1524.03 337.633 1522.43 335.525L1080.83 569.447L1420.43 547.865C1420.51 544.794 1421.6 541.817 1423.55 539.338C1425.51 536.86 1428.25 535 1431.38 534.009Z" stroke="#08FDD8" stroke-miterlimit="10"/>
<path d="M-252.844 1185.87L79.3147 1005.6C79.0628 1005.11 78.842 1004.6 78.6534 1004.08C77.312 1000.41 77.5542 996.407 79.329 992.904C81.1038 989.401 84.2732 986.672 88.1723 985.288L16.1892 747.162C12.9941 747.702 9.69753 747.335 6.73204 746.107L-256.765 1182.3C-255.251 1183.28 -253.925 1184.48 -252.844 1185.87V1185.87Z" stroke="#08FDD8" stroke-miterlimit="10"/>
<path d="M269.706 958.945L658.162 873.003L28.5527 737.169C27.9527 738.838 27.0419 740.396 25.8616 741.773L269.706 958.945Z" stroke="#08FDD8" stroke-miterlimit="10"/>
<path d="M963.378 837.138L1195.06 694.846L1074.91 573.766L958.35 833.289C960.289 834.245 961.999 835.554 963.378 837.138V837.138Z" stroke="#08FDD8" stroke-miterlimit="10"/>
<path d="M1585.76 1635.51L1392 1353.4L1136.07 1553.68C1138.28 1556.62 1139.28 1560.19 1138.88 1563.75L1579.96 1643.58C1580.88 1640.37 1582.92 1637.53 1585.76 1635.51V1635.51Z" stroke="#08FDD8" stroke-miterlimit="10"/>
<path d="M1279.11 1210.47C1278.65 1210.25 1278.21 1210 1277.78 1209.73L1166.73 1331.64C1168.21 1333.15 1169.33 1334.92 1170.02 1336.85C1170.87 1339.16 1171.1 1341.61 1170.69 1344.02C1170.28 1346.42 1169.25 1348.69 1167.68 1350.64C1166.11 1352.58 1164.05 1354.15 1161.68 1355.19C1159.31 1356.23 1156.7 1356.72 1154.08 1356.61L1126.54 1547.63C1126.94 1547.71 1127.34 1547.81 1127.72 1547.93L1279.11 1210.47Z" stroke="#08FDD8" stroke-miterlimit="10"/>
<path d="M1138.99 1338.35L684.181 1222.35C683.104 1225.7 680.789 1228.6 677.641 1230.53C674.493 1232.47 670.711 1233.31 666.958 1232.92L616.965 1459.4C619.371 1460.07 621.573 1461.26 623.397 1462.86C625.221 1464.46 626.615 1466.44 627.468 1468.63L1139.02 1345.15C1138.44 1342.92 1138.43 1340.59 1138.99 1338.35V1338.35Z" stroke="#08FDD8" stroke-miterlimit="10"/>
<path d="M596.974 1478.53C595.933 1475.69 595.837 1472.63 596.698 1469.74C597.559 1466.85 599.338 1464.27 601.803 1462.33L585.364 1440.66L500.202 1663.93L603.34 1486.19C600.356 1484.37 598.115 1481.67 596.974 1478.53Z" stroke="#08FDD8" stroke-miterlimit="10"/>
<path d="M147.515 1540C148.213 1539.78 148.927 1539.61 149.652 1539.49L123.971 1295.5C120.332 1295.51 116.795 1294.39 113.93 1292.31L-51.3343 1454.2C-49.3213 1456.18 -47.9315 1458.63 -47.316 1461.28C-46.7005 1463.94 -46.8829 1466.7 -47.8435 1469.27L138.719 1546.77C140.65 1543.59 143.783 1541.18 147.515 1540V1540Z" stroke="#08FDD8" stroke-miterlimit="10"/>
<path d="M480.811 1669.98L275.196 1446.82L165.322 1544.8C166.496 1546.15 167.402 1547.68 167.998 1549.32C169.079 1552.26 169.143 1555.43 168.182 1558.4L478.028 1673.57C478.756 1672.25 479.695 1671.04 480.811 1669.98Z" stroke="#08FDD8" stroke-miterlimit="10"/>
<path d="M-250.675 1189.77C-249.863 1192 -249.626 1194.36 -249.983 1196.69L6.13217 1253.12L87.634 1013.06C84.8827 1011.98 82.5042 1010.23 80.7602 1007.98L-251.398 1188.25C-251.125 1188.74 -250.884 1189.25 -250.675 1189.77V1189.77Z" stroke="#08FDD8" stroke-miterlimit="10"/>
<path d="M1252.46 748.616C1252.03 745.776 1252.49 742.881 1253.78 740.276C1255.08 737.67 1257.15 735.465 1259.76 733.922C1262.37 732.379 1265.4 731.564 1268.49 731.573C1271.58 731.583 1274.61 732.417 1277.21 733.976L1425.34 558.941C1424.86 558.494 1424.41 558.018 1424 557.516L1199.63 695.374L1252.46 748.616Z" stroke="#08FDD8" stroke-miterlimit="10"/>
<path d="M965.547 840.417L1250.53 750.74L1197.12 696.914L965.039 839.462C965.208 839.761 965.393 840.089 965.547 840.417Z" stroke="#08FDD8" stroke-miterlimit="10"/>
<path d="M272.274 961.255L396.295 1071.72C399.397 1069.23 403.406 1067.93 407.505 1068.08C411.605 1068.23 415.487 1069.83 418.362 1072.54L666.743 876.766C666.143 875.984 665.628 875.148 665.205 874.272L272.274 961.255Z" stroke="#08FDD8" stroke-miterlimit="10"/>
<path d="M109.763 1002.07L391.728 1077.76C392.331 1076.28 393.177 1074.9 394.235 1073.67L268.814 961.982L109.886 997.134C110.138 998.773 110.097 1000.44 109.763 1002.07Z" stroke="#08FDD8" stroke-miterlimit="10"/>
<path d="M693.177 876.752L838.573 991.19L940.312 857.836C938.103 856.098 936.445 853.837 935.514 851.293C935.26 850.586 935.065 849.861 934.93 849.126L696.099 868.214C696.09 871.27 695.07 874.25 693.177 876.752V876.752Z" stroke="#08FDD8" stroke-miterlimit="10"/>
<path d="M471.277 1290.21C470.368 1290.69 469.416 1291.09 468.432 1291.41C467.574 1291.67 466.695 1291.87 465.802 1291.99L492.805 1665.47C493.998 1665.5 495.183 1665.65 496.342 1665.91L583.303 1437.84L471.277 1290.21Z" stroke="#08FDD8" stroke-miterlimit="10"/>
<path d="M653.426 1222.86L653.426 1222.72L479.135 1274.39C479.682 1277 479.471 1279.69 478.525 1282.19C477.58 1284.7 475.932 1286.92 473.753 1288.64L584.518 1434.69L661.96 1231.64C659.969 1230.79 658.185 1229.57 656.717 1228.06C655.25 1226.55 654.13 1224.78 653.426 1222.86V1222.86Z" stroke="#08FDD8" stroke-miterlimit="10"/>
<path d="M1496.18 1262.96C1495.28 1260.49 1495.09 1257.85 1495.63 1255.29L1301.67 1202.76C1300.61 1205.25 1298.84 1207.43 1296.55 1209.07L1392.79 1349.23L1498.25 1266.71C1497.37 1265.55 1496.68 1264.29 1496.18 1262.96Z" stroke="#08FDD8" stroke-miterlimit="10"/>
<path d="M487.193 1666.23C488.05 1665.96 488.93 1665.76 489.822 1665.63L462.835 1292.15C459.101 1292.06 455.516 1290.78 452.685 1288.52L277.38 1444.88L483.072 1668.17C484.341 1667.34 485.728 1666.69 487.193 1666.23V1666.23Z" stroke="#08FDD8" stroke-miterlimit="10"/>
<path d="M1271.36 1202.06C1270.96 1200.94 1270.7 1199.79 1270.59 1198.61L1208.76 1192.18L1162.03 1328.29C1162.91 1328.69 1163.75 1329.17 1164.53 1329.71L1275.44 1208.01C1273.59 1206.35 1272.19 1204.31 1271.36 1202.06V1202.06Z" stroke="#08FDD8" stroke-miterlimit="10"/>
<path d="M1147.68 1328.2L1077.25 1190.64C1077.14 1190.69 1077.02 1190.73 1076.9 1190.77C1072.84 1192.05 1068.4 1191.78 1064.56 1190.02C1060.71 1188.27 1057.78 1185.17 1056.4 1181.41C1056.19 1180.8 1056.01 1180.19 1055.88 1179.57L684.796 1216.63C684.904 1217.63 684.904 1218.65 684.796 1219.65L1139.98 1335.74C1141.48 1332.45 1144.22 1329.77 1147.68 1328.2V1328.2Z" stroke="#08FDD8" stroke-miterlimit="10"/>
<path d="M447.949 1281.99C447.81 1281.63 447.718 1281.28 447.611 1280.92L140.057 1281.77C139.714 1285.19 138.125 1288.4 135.551 1290.87L275.488 1442.74L450.701 1286.51C449.507 1285.16 448.575 1283.63 447.949 1281.99V1281.99Z" stroke="#08FDD8" stroke-miterlimit="10"/>
<path d="M108.594 1285.3C107.779 1283.07 107.547 1280.7 107.917 1278.38L8.14695 1256.33L-57.7003 1450.19C-56.2248 1450.69 -54.8323 1451.38 -53.5637 1452.23L111.762 1290.37C110.352 1288.89 109.275 1287.17 108.594 1285.3V1285.3Z" stroke="#08FDD8" stroke-miterlimit="10"/>
<path d="M2164.67 1983.84C2168.31 1982.68 2171.39 1980.35 2173.35 1977.28C2175.31 1974.2 2176.01 1970.58 2175.34 1967.06C2174.67 1963.54 2172.67 1960.37 2169.7 1958.1C2166.72 1955.83 2162.97 1954.62 2159.12 1954.69L2116.63 1614.68C2117.26 1614.56 2117.88 1614.4 2118.49 1614.21C2121.21 1613.36 2123.63 1611.85 2125.51 1609.84C2127.38 1607.83 2128.65 1605.39 2129.18 1602.78C2129.7 1600.16 2129.47 1597.47 2128.49 1594.96C2127.52 1592.46 2125.85 1590.25 2123.65 1588.54C2121.44 1586.84 2118.79 1585.71 2115.96 1585.27C2113.13 1584.84 2110.23 1585.1 2107.55 1586.05C2104.87 1587 2102.51 1588.59 2100.71 1590.66C2098.92 1592.74 2097.75 1595.22 2097.33 1597.85L1847.33 1585.4C1847.28 1583.95 1847 1582.5 1846.49 1581.13C1845.56 1578.56 1843.89 1576.28 1841.67 1574.52C1839.45 1572.76 1836.76 1571.6 1833.88 1571.15L1846.01 1418.91C1847.53 1418.85 1849.03 1418.59 1850.47 1418.14C1854.54 1416.88 1857.9 1414.18 1859.81 1410.63C1861.73 1407.08 1862.04 1402.97 1860.69 1399.2C1859.34 1395.43 1856.42 1392.32 1852.59 1390.54C1848.76 1388.76 1844.33 1388.47 1840.26 1389.73L1745.76 1205.84C1749.11 1204.16 1751.7 1201.44 1753.09 1198.16C1754.49 1194.88 1754.59 1191.25 1753.38 1187.91C1752.61 1185.84 1751.37 1183.96 1749.73 1182.39L1890.44 1032.16C1892.69 1033.65 1895.31 1034.58 1898.06 1034.87C1900.81 1035.15 1903.6 1034.77 1906.14 1033.77C1908.69 1032.77 1910.92 1031.18 1912.61 1029.15C1914.3 1027.12 1915.41 1024.72 1915.81 1022.18C1916.22 1019.65 1915.91 1017.06 1914.93 1014.66C1913.94 1012.26 1912.31 1010.14 1910.19 1008.5C1908.06 1006.85 1905.52 1005.74 1902.8 1005.27C1900.08 1004.81 1897.27 1004.99 1894.65 1005.82C1892.76 1006.41 1891 1007.34 1889.47 1008.54L1751.84 882.411C1753.38 880.694 1754.48 878.679 1755.07 876.514C1755.66 874.349 1755.71 872.09 1755.24 869.902C1754.76 867.714 1753.76 865.653 1752.31 863.871C1750.86 862.089 1748.99 860.631 1746.86 859.604L1850.26 626.651C1853.34 627.527 1856.63 627.528 1859.71 626.654C1862.79 625.781 1865.52 624.073 1867.55 621.751C1869.57 619.428 1870.8 616.597 1871.08 613.621C1871.35 610.645 1870.66 607.661 1869.09 605.053C1867.52 602.444 1865.15 600.33 1862.27 598.983C1859.4 597.636 1856.15 597.116 1852.96 597.492C1849.76 597.868 1846.76 599.122 1844.34 601.092C1841.92 603.062 1840.19 605.659 1839.37 608.548L1452.68 549.29C1452.84 547.297 1452.57 545.294 1451.87 543.403C1451.72 543.02 1451.56 542.644 1451.37 542.277L1531.48 341.427C1534.95 342.289 1538.64 342.049 1541.96 340.746C1545.27 339.443 1548.02 337.151 1549.76 334.235C1551.51 331.318 1552.16 327.944 1551.6 324.647C1551.04 321.351 1549.31 318.323 1546.69 316.042C1544.06 313.762 1540.68 312.36 1537.1 312.061C1533.51 311.761 1529.92 312.58 1526.9 314.388C1523.87 316.196 1521.59 318.889 1520.4 322.039C1519.22 325.189 1519.2 328.617 1520.36 331.776C1520.52 332.261 1520.72 332.737 1520.94 333.202L1074.73 569.561L1073.96 568.777L1073.25 570.345L1068.05 573.096L1072.13 572.839L955.613 832.277C953.199 831.574 950.641 831.408 948.145 831.793C945.649 832.177 943.286 833.1 941.246 834.488C939.207 835.876 937.549 837.69 936.406 839.782C935.263 841.874 934.668 844.187 934.668 846.532L695.837 865.619C695.471 863.644 694.681 861.758 693.514 860.072C692.346 858.385 690.826 856.934 689.042 855.802C687.258 854.671 685.247 853.883 683.128 853.485C681.01 853.088 678.827 853.088 676.709 853.487C674.591 853.886 672.58 854.676 670.797 855.808C669.014 856.941 667.495 858.394 666.329 860.081C665.163 861.768 664.374 863.655 664.009 865.63C663.644 867.604 663.711 869.627 664.205 871.578L29.2294 734.589C29.6266 731.946 29.2548 729.252 28.1527 726.787C27.0505 724.321 25.258 722.173 22.9603 720.565C20.6625 718.957 17.9432 717.947 15.0833 717.64C12.2234 717.332 9.32683 717.739 6.69316 718.817C4.05949 719.895 1.78429 721.606 0.102825 723.772C-1.57864 725.938 -2.60523 728.482 -2.87097 731.139C-3.13671 733.796 -2.6319 736.471 -1.40866 738.887C-0.185424 741.303 1.71171 743.372 4.08672 744.881L-259.425 1181.08C-262.989 1179.6 -267.009 1179.38 -270.74 1180.44C-274.47 1181.5 -277.657 1183.79 -279.709 1186.87L-483.986 1092.4C-483.156 1090.42 -482.792 1088.29 -482.917 1086.17C-483.042 1084.05 -483.653 1081.97 -484.711 1080.08C-485.768 1078.2 -487.248 1076.54 -489.05 1075.23C-490.852 1073.91 -492.936 1072.97 -495.163 1072.46C-497.39 1071.94 -499.709 1071.88 -501.965 1072.27C-504.221 1072.65 -506.363 1073.48 -508.247 1074.69C-510.131 1075.9 -511.716 1077.47 -512.894 1079.3C-514.072 1081.12 -514.817 1083.16 -515.08 1085.27L-722.771 1080.72C-722.858 1079.44 -723.127 1078.17 -723.57 1076.95C-724.225 1075.05 -725.281 1073.3 -726.675 1071.79C-728.069 1070.27 -729.774 1069.03 -731.691 1068.14C-733.607 1067.24 -735.697 1066.71 -737.838 1066.57C-739.979 1066.44 -742.128 1066.69 -744.16 1067.33C-746.192 1067.97 -748.066 1068.98 -749.673 1070.3C-751.28 1071.62 -752.588 1073.22 -753.52 1075.01C-754.452 1076.8 -754.989 1078.75 -755.101 1080.74C-755.213 1082.72 -754.897 1084.71 -754.172 1086.58C-753.883 1087.34 -753.534 1088.07 -753.126 1088.78L-1065.77 1278.99C-1067.39 1277.11 -1069.48 1275.61 -1071.87 1274.63C-1074.25 1273.66 -1076.85 1273.23 -1079.45 1273.39C-1082.05 1273.54 -1084.56 1274.28 -1086.79 1275.54C-1089.01 1276.79 -1090.88 1278.53 -1092.22 1280.59C-1093.57 1282.66 -1094.35 1285 -1094.51 1287.41C-1094.67 1289.82 -1094.2 1292.23 -1093.14 1294.43C-1092.08 1296.63 -1090.46 1298.57 -1088.41 1300.06C-1086.37 1301.56 -1083.97 1302.58 -1081.41 1303.03L-1101.98 1500.86C-1104.03 1500.76 -1106.07 1501.02 -1108.01 1501.63C-1110.02 1502.26 -1111.88 1503.25 -1113.48 1504.55C-1115.08 1505.84 -1116.38 1507.42 -1117.33 1509.18C-1118.27 1510.95 -1118.82 1512.87 -1118.96 1514.83C-1119.11 1516.79 -1118.83 1518.76 -1118.15 1520.63C-1117.47 1522.49 -1116.4 1524.21 -1115 1525.7C-1113.6 1527.18 -1111.9 1528.39 -1110 1529.26C-1108.09 1530.13 -1106.02 1530.65 -1103.9 1530.78C-1101.79 1530.91 -1099.66 1530.65 -1097.65 1530.02L-1097.02 1529.78L-990.589 1719.14C-992.667 1720.72 -994.289 1722.75 -995.308 1725.05C-996.326 1727.35 -996.709 1729.86 -996.421 1732.33C-996.134 1734.81 -995.185 1737.17 -993.661 1739.22C-992.137 1741.27 -990.085 1742.94 -987.692 1744.07C-985.3 1745.2 -982.641 1745.75 -979.957 1745.69C-977.272 1745.63 -974.647 1744.94 -972.32 1743.7C-969.992 1742.46 -968.035 1740.7 -966.625 1738.59C-965.215 1736.47 -964.398 1734.06 -964.247 1731.57L-664.382 1696.05C-664.388 1696.11 -664.388 1696.17 -664.382 1696.23C-663.587 1698.39 -662.271 1700.35 -660.536 1701.96C-658.8 1703.57 -656.69 1704.8 -654.367 1705.54C-652.044 1706.28 -649.568 1706.52 -647.129 1706.25C-644.69 1705.97 -642.351 1705.18 -640.292 1703.93C-638.233 1702.69 -636.507 1701.03 -635.245 1699.07C-633.984 1697.12 -633.221 1694.92 -633.014 1692.65C-632.807 1690.38 -633.162 1688.1 -634.052 1685.97C-634.941 1683.85 -636.342 1681.94 -638.147 1680.4L-478.312 1493.66C-475.947 1495.03 -473.238 1495.82 -470.449 1495.93C-467.66 1496.05 -464.886 1495.49 -462.398 1494.32C-459.909 1493.15 -457.791 1491.4 -456.249 1489.24C-454.707 1487.08 -453.794 1484.59 -453.6 1482.01L-79.2141 1466.76C-79.0809 1467.61 -78.8649 1468.44 -78.5683 1469.25C-77.5679 1471.99 -75.7336 1474.4 -73.2873 1476.19C-70.841 1477.99 -67.8873 1479.08 -64.7828 1479.35C-61.6784 1479.62 -58.556 1479.05 -55.7929 1477.71C-53.0299 1476.38 -50.7442 1474.32 -49.2122 1471.81L137.273 1549.35C135.946 1552.93 136.132 1556.85 137.794 1560.31C139.457 1563.76 142.471 1566.51 146.231 1567.99C149.99 1569.47 154.215 1569.58 158.055 1568.28C161.894 1566.99 165.062 1564.4 166.921 1561.03L476.92 1676.13C476.06 1678.79 476.014 1681.62 476.787 1684.31C477.56 1686.99 479.123 1689.42 481.3 1691.33C483.477 1693.23 486.183 1694.54 489.116 1695.11C492.049 1695.67 495.094 1695.47 497.91 1694.52C500.726 1693.58 503.203 1691.92 505.064 1689.75C506.925 1687.57 508.098 1684.96 508.451 1682.2C508.803 1679.44 508.322 1676.65 507.061 1674.13C505.8 1671.61 503.809 1669.47 501.309 1667.94L606.016 1487.49C608.673 1488.54 611.585 1488.9 614.448 1488.55C617.312 1488.2 620.02 1487.15 622.292 1485.49C624.563 1483.84 626.313 1481.65 627.359 1479.15C628.405 1476.66 628.708 1473.95 628.237 1471.31L1139.81 1347.82L1139.44 1346.49C1140.33 1348.91 1141.87 1351.07 1143.91 1352.78C1145.96 1354.48 1148.44 1355.68 1151.12 1356.24L1123.58 1547.26C1120.56 1547.14 1117.56 1547.82 1114.93 1549.21C1112.3 1550.59 1110.15 1552.64 1108.71 1555.11C1107.28 1557.58 1106.62 1560.37 1106.81 1563.17C1107.01 1565.97 1108.05 1568.66 1109.81 1570.94C1111.57 1573.22 1113.99 1574.99 1116.79 1576.06C1119.59 1577.12 1122.66 1577.44 1125.64 1576.97C1128.63 1576.49 1131.4 1575.25 1133.66 1573.39C1135.92 1571.52 1137.57 1569.11 1138.42 1566.41L1579.61 1646.28C1579.47 1648.27 1579.75 1650.26 1580.44 1652.14C1581.14 1654.02 1582.23 1655.76 1583.65 1657.24C1585.07 1658.73 1586.8 1659.94 1588.74 1660.8C1590.67 1661.66 1592.77 1662.16 1594.91 1662.26L1598.31 1838.44C1597.45 1838.57 1596.6 1838.77 1595.77 1839.02C1593.2 1839.83 1590.89 1841.23 1589.06 1843.09C1587.22 1844.95 1585.92 1847.2 1585.28 1849.65C1584.63 1852.09 1584.67 1854.65 1585.37 1857.08C1586.08 1859.51 1587.43 1861.74 1589.31 1863.56C1591.19 1865.37 1593.54 1866.72 1596.13 1867.48C1598.72 1868.23 1601.47 1868.37 1604.14 1867.87C1606.8 1867.38 1609.28 1866.27 1611.36 1864.65C1613.44 1863.02 1615.04 1860.94 1616.02 1858.6L2143.48 1967.77C2143.12 1970.29 2143.47 1972.85 2144.48 1975.21C2145.49 1977.57 2147.14 1979.66 2149.26 1981.27C2151.38 1982.87 2153.91 1983.95 2156.6 1984.4C2159.3 1984.85 2162.08 1984.66 2164.67 1983.84V1983.84ZM1601.26 1838.24L1597.86 1662.15C1598.91 1662.02 1599.94 1661.8 1600.94 1661.49C1603.92 1660.57 1606.54 1658.84 1608.47 1656.53L1788.25 1759.24L1614.49 1845.15C1613.06 1843.09 1611.11 1841.38 1608.8 1840.17C1606.5 1838.97 1603.91 1838.3 1601.26 1838.24V1838.24ZM1130.47 1548.99L1281.87 1211.53C1285.12 1212.48 1288.63 1212.44 1291.86 1211.43C1292.61 1211.18 1293.33 1210.89 1294.03 1210.56L1390.46 1351.02L1134.26 1551.55C1133.13 1550.53 1131.86 1549.67 1130.47 1548.99V1548.99ZM607.123 1459.53C606.138 1459.85 605.185 1460.25 604.279 1460.73L586.625 1437.45L662.944 1237.36L614.074 1458.85C611.731 1458.59 609.357 1458.83 607.123 1459.53V1459.53ZM152.559 1539.16L126.878 1295.17C127.608 1295.05 128.327 1294.88 129.031 1294.66C130.496 1294.2 131.883 1293.54 133.152 1292.72L273.197 1444.72L163.246 1542.85C160.285 1540.46 156.486 1539.15 152.559 1539.16V1539.16ZM-964.401 1728.75C-964.817 1725.79 -966.175 1723.02 -968.301 1720.79C-970.427 1718.55 -973.224 1716.96 -976.334 1716.2L-944.471 1580.33L-664.951 1689.01C-665.18 1690.42 -665.18 1691.86 -664.951 1693.28L-844.316 1714.52L-964.401 1728.75ZM19.0032 746.406C20.7586 745.798 22.3832 744.905 23.801 743.769L266.261 959.701L109.193 994.454C107.95 991.054 105.427 988.183 102.086 986.366C98.7451 984.549 94.8101 983.909 91.0015 984.561L19.0032 746.406ZM1722.1 1194.83L1637.72 1054.25L1727.5 1181.51C1725.48 1183.14 1723.93 1185.21 1722.98 1187.54C1722.04 1189.87 1721.74 1192.37 1722.1 1194.83ZM1829.97 1408.86C1830.66 1410.74 1831.75 1412.47 1833.17 1413.96L1747.32 1497.93L1523.37 1268.27C1524.15 1267.5 1524.83 1266.64 1525.4 1265.72L1830.27 1398.45C1828.82 1401.77 1828.72 1405.47 1829.97 1408.86V1408.86ZM1816.13 1591.4C1817.41 1594.5 1819.76 1597.12 1822.82 1598.85C1825.87 1600.57 1829.46 1601.31 1833.02 1600.93C1836.57 1600.56 1839.89 1599.1 1842.46 1596.79C1845.02 1594.48 1846.68 1591.44 1847.18 1588.15L2093.81 1600.44L1612.64 1644.94L1816.13 1591.4ZM1819.29 1575.87C1817.6 1577.57 1816.37 1579.62 1815.68 1581.85C1814.99 1584.07 1814.87 1586.42 1815.32 1588.69L1610.99 1642.49C1610.39 1640.84 1609.47 1639.3 1608.29 1637.94L1747.23 1501.98L1819.29 1575.87ZM1606.21 1635.96C1604.58 1634.66 1602.68 1633.68 1600.63 1633.07C1598.57 1632.46 1596.41 1632.24 1594.26 1632.41L1516.11 1272.48L1516.68 1272.32C1518.29 1271.82 1519.8 1271.08 1521.16 1270.13L1745.27 1499.93L1606.21 1635.96ZM1150.49 1327.23L1079.94 1189.47C1081.87 1188.41 1083.54 1186.99 1084.85 1185.29C1086.15 1183.59 1087.05 1181.66 1087.51 1179.62L1205.73 1191.9L1159.24 1327.32C1156.39 1326.53 1153.36 1326.5 1150.49 1327.23V1327.23ZM-733.674 1095.98C-731.625 1095.33 -729.737 1094.31 -728.123 1092.97C-726.509 1091.63 -725.201 1090.01 -724.278 1088.19L-575.268 1138.57L-883.237 1353.82C-884.204 1352.84 -885.305 1351.98 -886.512 1351.27L-744.884 1095.68C-741.306 1097.02 -737.329 1097.12 -733.674 1095.98V1095.98ZM-522.753 1164.84C-522.584 1165.3 -522.384 1165.74 -522.169 1166.18L-876.01 1352.22L-571.931 1139.7L-523.076 1156.22C-523.874 1159.06 -523.762 1162.06 -522.753 1164.84V1164.84ZM-879.885 1359.09C-880.054 1358.64 -880.249 1358.19 -880.469 1357.75L-520.631 1168.58C-518.697 1171.16 -515.93 1173.11 -512.727 1174.15L-586.232 1447.59L-879.3 1366.83C-878.759 1364.25 -878.96 1361.58 -879.885 1359.09V1359.09ZM-469.761 1466L-504.223 1174.73C-503.557 1174.61 -502.9 1174.45 -502.255 1174.25C-499.626 1173.42 -497.274 1171.98 -495.427 1170.06L-330.686 1283.29L-461.734 1467.89C-464.183 1466.61 -466.95 1465.94 -469.761 1465.96L-469.761 1466ZM-326.641 1282.62L-273.557 1207.83C-271.614 1208.8 -269.477 1209.39 -267.279 1209.56C-265.08 1209.73 -262.867 1209.48 -260.779 1208.82C-259.833 1208.51 -258.917 1208.13 -258.041 1207.68L-74.2933 1453.59C-74.8007 1454.04 -75.2782 1454.51 -75.7233 1455.01L-326.641 1282.62ZM-68.296 1450.25C-69.5752 1450.66 -70.7943 1451.22 -71.9251 1451.91L-255.581 1206.1C-253.315 1204.33 -251.617 1202.02 -250.675 1199.42L5.2247 1255.76L-60.5917 1449.62C-63.1765 1449.23 -65.827 1449.42 -68.3113 1450.19L-68.296 1450.25ZM9.05392 1253.81L90.5557 1013.93C91.7081 1014.16 92.8832 1014.27 94.0617 1014.27L120.896 1265.84C120.162 1265.94 119.437 1266.1 118.728 1266.31C116.379 1267.05 114.246 1268.28 112.496 1269.91C110.746 1271.54 109.426 1273.52 108.64 1275.7L9.05392 1253.81ZM1253.71 752.65C1255.15 755.692 1257.64 758.2 1260.8 759.777L1176.9 943.18L966.039 851.578C967.116 848.837 967.298 845.862 966.562 843.025L1253.71 752.65ZM1883.8 1018.74L1740.08 1019.26L1740.8 887.828C1744.1 887.575 1747.24 886.369 1749.76 884.378L1887.41 1010.58C1885.34 1012.9 1884.08 1015.75 1883.8 1018.74V1018.74ZM1737.81 887.814L1737.09 1019.27L1632.17 1019.64C1631.81 1015.99 1630.01 1012.6 1627.11 1010.11L1730.76 885.562C1732.88 886.817 1735.3 887.589 1737.81 887.814V887.814ZM1736.2 1177.93C1735.08 1178.05 1733.98 1178.28 1732.91 1178.61C1731.87 1178.95 1730.86 1179.38 1729.91 1179.89L1626.14 1032.79C1627.86 1031.53 1629.28 1029.96 1630.32 1028.17C1631.36 1026.39 1631.99 1024.43 1632.19 1022.41L1737.08 1022.02L1736.2 1177.93ZM1506.29 1243.97C1504.99 1244.38 1503.75 1244.95 1502.6 1245.65L1406.7 1134.65L1602.92 1029.68C1604.4 1031.62 1606.36 1033.2 1608.64 1034.3L1516.19 1243.84C1512.96 1242.92 1509.49 1242.96 1506.29 1243.97V1243.97ZM1286.79 1182.29L1281.48 1001.85C1281.9 1001.75 1282.3 1001.67 1282.7 1001.54C1284 1001.12 1285.24 1000.55 1286.39 999.842L1402.2 1133.84L1299.84 1188.58C1298.36 1186.64 1296.4 1185.07 1294.13 1183.97C1291.86 1182.88 1289.34 1182.3 1286.79 1182.29V1182.29ZM139.195 1275.67C138.801 1274.61 138.286 1273.6 137.658 1272.64L299.508 1159.9L447.457 1274.18C447.161 1275.5 447.058 1276.86 447.149 1278.21L139.979 1279.07C139.861 1277.91 139.598 1276.77 139.195 1275.67V1275.67ZM409.12 1097.82L418.839 1136.15L451.901 1266.58C450.413 1267.94 449.228 1269.56 448.41 1271.34L301.937 1158.19L395.126 1093.27C396.896 1095.01 399.09 1096.33 401.526 1097.12C403.961 1097.91 406.565 1098.15 409.12 1097.82V1097.82ZM135.858 1270.43C134.333 1268.87 132.471 1267.63 130.393 1266.79C128.316 1265.94 126.071 1265.51 123.802 1265.52L102.643 1067.17L96.9681 1013.94C97.6858 1013.81 98.3945 1013.65 99.0902 1013.44C101.409 1012.7 103.514 1011.47 105.241 1009.85L297.109 1158.07L135.858 1270.43ZM458.052 1263.04C456.796 1263.44 455.598 1263.98 454.484 1264.65L412.026 1097.19C415.278 1096.16 418.09 1094.2 420.053 1091.59L527.298 1146.4L464.403 1262.3C462.254 1262.15 460.094 1262.4 458.052 1263.04V1263.04ZM531.28 1145.26L674.062 882.098C675.319 882.55 676.631 882.856 677.968 883.01L668.188 1175.08L667.25 1203.09C665.984 1203.2 664.735 1203.44 663.529 1203.81C660.473 1204.75 657.792 1206.52 655.84 1208.89L531.28 1145.26ZM957.397 860.16C960.469 858.887 963.035 856.753 964.732 854.058L1175.73 945.674L1076.6 1162.35C1073.8 1161.51 1070.81 1161.4 1067.95 1162.03L957.397 860.16ZM1427.68 560.694C1428.35 561.11 1429.06 561.477 1429.8 561.792L1342.52 803.226L1281.65 755.173C1283.89 752.233 1284.9 748.645 1284.52 745.065C1284.13 741.486 1282.36 738.157 1279.54 735.686L1325.49 681.418L1427.68 560.694ZM1262.21 992.188C1262.84 993.897 1263.8 995.486 1265.04 996.877L1082.05 1165.08C1081.21 1164.43 1080.3 1163.87 1079.34 1163.39L1178.44 946.843L1262.03 983.122C1261.07 986.083 1261.13 989.248 1262.21 992.173L1262.21 992.188ZM1293.32 990.335L1599.97 1020.85C1599.94 1022.56 1600.22 1024.26 1600.8 1025.89C1600.98 1026.37 1601.19 1026.85 1601.43 1027.31L1404.81 1132.45L1288.72 998.103C1291.07 995.999 1292.67 993.286 1293.32 990.32L1293.32 990.335ZM1602.91 1012.47C1601.61 1014.18 1600.72 1016.12 1600.28 1018.17L1293.58 987.569C1293.62 985.859 1293.33 984.156 1292.74 982.537C1292.02 980.576 1290.87 978.775 1289.36 977.248C1287.85 975.722 1286.02 974.503 1283.97 973.671L1343.95 807.973L1602.91 1012.47ZM1281.2 972.787C1280.33 972.593 1279.44 972.469 1278.54 972.416L1273.59 844.636L1270.52 761.402C1271.56 761.274 1272.59 761.049 1273.59 760.732C1275.91 760.028 1278.01 758.838 1279.74 757.254L1341.52 806.034L1281.2 972.787ZM1267.44 761.488L1275.38 972.459C1274.33 972.591 1273.3 972.815 1272.3 973.129C1268.3 974.373 1264.99 977.025 1263.07 980.513L1179.56 944.249L1263.55 760.803C1264.81 761.176 1266.12 761.406 1267.44 761.488V761.488ZM1058.49 1167.95C1056.54 1170.53 1055.51 1173.61 1055.55 1176.76L912.817 1191.01L684.212 1213.82C684.212 1213.61 684.104 1213.39 684.027 1213.18C682.956 1210.33 680.984 1207.85 678.368 1206.05L839.127 995.295L1058.49 1167.95ZM1087 1171.73C1086.37 1170.03 1085.42 1168.45 1084.2 1167.07L1267.81 999.329C1268.86 1000.05 1270 1000.66 1271.21 1001.13L1206.62 1189.2L1087.81 1176.89C1087.86 1175.16 1087.58 1173.43 1087 1171.78L1087 1171.73ZM1609.35 1007.47C1607.68 1008.17 1606.15 1009.13 1604.83 1010.32L1344.95 805.05L1432.6 562.604C1435.08 563.189 1437.67 563.219 1440.16 562.69L1609.35 1007.47ZM954.567 861.072L1065.12 1162.93C1063.4 1163.66 1061.84 1164.67 1060.5 1165.9L840.864 993.029L942.742 859.475C946.315 861.398 950.55 861.97 954.567 861.072V861.072ZM836.866 993.499L675.831 1204.6C674.077 1203.82 672.187 1203.33 670.249 1203.17L681.013 883.124C682.444 883.053 683.856 882.799 685.211 882.369C687.521 881.659 689.625 880.47 691.362 878.89L836.866 993.499ZM671.418 880.886L528.682 1143.94L421.576 1089.21C422.723 1086.88 423.205 1084.32 422.976 1081.78C422.747 1079.23 421.815 1076.78 420.269 1074.67L668.68 878.876C669.507 879.627 670.42 880.291 671.402 880.858L671.418 880.886ZM391.543 1087.84C391.969 1088.99 392.553 1090.1 393.281 1091.12L299.569 1156.39L107.194 1007.73C107.893 1006.79 108.476 1005.79 108.932 1004.73L390.913 1080.42C390.462 1082.9 390.685 1085.44 391.559 1087.81L391.543 1087.84ZM467.494 1262.82L529.927 1147.75L654.302 1211.33C652.846 1214.02 652.31 1217.07 652.764 1220.05L478.289 1271.77C477.374 1269.59 475.923 1267.65 474.051 1266.09C472.179 1264.53 469.938 1263.4 467.509 1262.79L467.494 1262.82ZM1209.67 1189.55L1274.05 1001.97C1275.52 1002.27 1277.02 1002.38 1278.51 1002.28L1283.8 1182.53C1283.01 1182.65 1282.23 1182.83 1281.47 1183.07C1278.52 1184 1275.93 1185.7 1274 1187.96C1272.07 1190.23 1270.89 1192.96 1270.59 1195.83L1209.67 1189.55ZM1301.93 1192.4C1301.75 1191.91 1301.54 1191.44 1301.3 1190.97L1404.06 1136.02L1500.24 1247.35C1498.59 1248.84 1497.3 1250.63 1496.45 1252.61L1302.5 1200.09C1303.05 1197.54 1302.87 1194.9 1301.96 1192.44L1301.93 1192.4ZM1831.65 1396.03L1526.68 1263.27C1528.01 1259.87 1527.97 1256.13 1526.55 1252.76C1525.14 1249.38 1522.45 1246.6 1518.99 1244.93L1611.39 1035.38C1614.63 1036.3 1618.1 1036.25 1621.3 1035.24C1621.75 1035.1 1622.19 1034.93 1622.62 1034.75L1836.66 1391.37C1834.64 1392.55 1832.92 1394.14 1831.65 1396.03V1396.03ZM1739.18 1177.93L1740.06 1022.09L1883.81 1021.58C1884.14 1024.93 1885.69 1028.07 1888.21 1030.49L1747.52 1180.72C1745.09 1179.06 1742.2 1178.06 1739.18 1177.86L1739.18 1177.93ZM1724.16 877.736C1725.01 880.086 1726.48 882.199 1728.45 883.879L1626.31 1006.61L1717.19 851.165L1727.8 862.569C1725.76 864.545 1724.33 867.005 1723.69 869.679C1723.05 872.354 1723.21 875.14 1724.16 877.736V877.736ZM1622.51 1007.33C1619.27 1006.03 1615.65 1005.77 1612.22 1006.57L1443.33 562.59L1443.7 561.649C1444.51 561.286 1445.29 560.862 1446.02 560.381L1715.13 848.927L1622.51 1007.33ZM1425.4 558.941L1277.27 733.976C1274.67 732.417 1271.65 731.583 1268.55 731.573C1265.46 731.564 1262.43 732.379 1259.82 733.922C1257.21 735.465 1255.14 737.67 1253.84 740.276C1252.55 742.881 1252.09 745.776 1252.53 748.616L1199.69 695.374L1424.06 557.573C1424.46 558.054 1424.88 558.511 1425.34 558.941L1425.4 558.941ZM1250.53 750.74L965.562 840.417C965.408 840.089 965.224 839.761 965.039 839.447L1197.12 696.899L1250.53 750.74ZM935.529 851.336C936.46 853.879 938.118 856.141 940.327 857.879L838.573 991.19L693.177 876.709C695.073 874.203 696.093 871.218 696.099 868.157L934.93 849.169C935.065 849.904 935.26 850.628 935.514 851.336L935.529 851.336ZM418.362 1072.44C415.487 1069.73 411.605 1068.13 407.505 1067.98C403.405 1067.83 399.397 1069.13 396.295 1071.62L272.274 961.255L665.22 874.3C665.643 875.177 666.159 876.012 666.758 876.795L418.362 1072.44ZM394.234 1073.61C393.177 1074.85 392.331 1076.23 391.728 1077.7L109.762 1002.01C110.096 1000.38 110.138 998.716 109.885 997.077L268.814 961.982L394.234 1073.61ZM87.6493 1013L6.14752 1253.07L-249.968 1196.63C-249.611 1194.31 -249.848 1191.94 -250.66 1189.72C-250.849 1189.2 -251.069 1188.69 -251.321 1188.19L80.8369 1007.93C82.5558 1010.18 84.913 1011.96 87.6493 1013.06L87.6493 1013ZM-281.262 1199.35C-280.273 1202.06 -278.463 1204.45 -276.049 1206.22L-329.04 1280.88L-493.582 1167.74C-492.769 1166.47 -492.158 1165.1 -491.767 1163.67L-282.092 1193.61C-282.234 1195.57 -281.952 1197.55 -281.262 1199.41L-281.262 1199.35ZM-512.65 1145.78C-514.698 1146.43 -516.584 1147.46 -518.198 1148.79C-519.812 1150.13 -521.12 1151.75 -522.046 1153.57L-569.086 1137.66L-510.989 1097.1C-508.67 1099.46 -505.599 1101.07 -502.224 1101.69L-507.222 1145.07C-509.065 1145.04 -510.901 1145.3 -512.65 1145.84L-512.65 1145.78ZM-514.342 1091.79C-513.957 1092.85 -513.441 1093.88 -512.804 1094.84L-572.423 1136.59L-723.248 1085.6C-723.062 1084.91 -722.923 1084.22 -722.832 1083.52L-515.141 1088.12C-515.048 1089.39 -514.78 1090.64 -514.342 1091.84L-514.342 1091.79ZM-889.173 1349.97C-892.807 1348.61 -896.854 1348.52 -900.552 1349.73C-904.251 1350.93 -907.346 1353.35 -909.256 1356.53L-951.56 1339.14L-747.59 1094.52L-889.173 1349.97ZM-910.471 1359.05C-911.617 1362.16 -911.617 1365.54 -910.471 1368.66C-910.023 1369.86 -909.413 1371.01 -908.657 1372.08L-1090.02 1506.64C-1090.24 1506.39 -1090.45 1506.13 -1090.68 1505.9L-953.452 1341.33L-910.471 1359.05ZM-1087.53 1510.96C-1087.78 1510.29 -1088.08 1509.64 -1088.44 1509.01L-906.796 1374.23C-904.936 1376.03 -902.62 1377.36 -900.06 1378.11L-946.562 1576.48L-1087.91 1521.51C-1086.42 1518.17 -1086.29 1514.45 -1087.53 1511.02L-1087.53 1510.96ZM-897.139 1378.69C-894.731 1378.98 -892.285 1378.75 -889.988 1378.02C-889.055 1377.73 -888.154 1377.36 -887.297 1376.91L-661.091 1681.55C-662.426 1682.96 -663.469 1684.59 -664.166 1686.35L-943.794 1577.62L-897.139 1378.69ZM-654.171 1677.17C-655.895 1677.72 -657.507 1678.53 -658.938 1679.57L-884.882 1375.34C-882.844 1373.75 -881.259 1371.71 -880.269 1369.41L-587.078 1450.22L-647.866 1676.42C-649.99 1676.3 -652.117 1676.58 -654.125 1677.23L-654.171 1677.17ZM-583.433 1448.33L-509.913 1174.76C-509.012 1174.89 -508.102 1174.95 -507.191 1174.93L-472.745 1466.19C-473.432 1466.32 -474.11 1466.48 -474.775 1466.69C-477.026 1467.4 -479.08 1468.56 -480.792 1470.09C-482.504 1471.62 -483.83 1473.48 -484.678 1475.54L-583.433 1448.33ZM-454.261 1476.05C-455.223 1473.43 -456.953 1471.1 -459.259 1469.34L-328.287 1284.84L-77.3688 1457.32C-78.5291 1459.35 -79.1709 1461.6 -79.2449 1463.89L-453.523 1479.15C-453.652 1478.11 -453.905 1477.09 -454.276 1476.11L-454.261 1476.05ZM-57.6853 1450.22L8.1619 1256.36L107.963 1278.38C107.626 1280.52 107.795 1282.7 108.459 1284.77C109.123 1286.84 110.266 1288.75 111.808 1290.37L-53.5026 1452.32C-54.7902 1451.46 -56.2038 1450.77 -57.7007 1450.28L-57.6853 1450.22ZM135.474 1290.93C138.048 1288.46 139.637 1285.25 139.979 1281.83L447.533 1280.98C447.641 1281.33 447.733 1281.69 447.872 1282.05C448.475 1283.68 449.38 1285.21 450.548 1286.56L275.334 1442.8L135.474 1290.93ZM452.685 1288.55C455.516 1290.8 459.101 1292.09 462.834 1292.18L489.822 1665.66C487.392 1666.01 485.083 1666.88 483.071 1668.19L277.349 1444.93L452.685 1288.55ZM492.806 1665.44L465.802 1291.97C466.695 1291.84 467.574 1291.64 468.432 1291.38C469.416 1291.06 470.368 1290.66 471.277 1290.18L583.303 1437.85L496.342 1665.86C495.182 1665.6 493.997 1665.47 492.806 1665.44ZM473.706 1288.62C475.886 1286.9 477.533 1284.67 478.479 1282.16C479.425 1279.66 479.635 1276.97 479.089 1274.36L653.38 1222.69L653.38 1222.83C654.084 1224.75 655.204 1226.53 656.671 1228.04C658.139 1229.55 659.922 1230.76 661.914 1231.61L584.472 1434.66L473.706 1288.62ZM684.796 1216.6L1055.88 1179.54C1056.01 1180.16 1056.19 1180.77 1056.4 1181.38C1057.08 1183.24 1058.15 1184.96 1059.55 1186.44C1060.95 1187.92 1062.65 1189.13 1064.55 1190C1066.45 1190.87 1068.52 1191.39 1070.64 1191.52C1072.76 1191.65 1074.89 1191.39 1076.9 1190.76C1077.02 1190.72 1077.14 1190.68 1077.25 1190.63L1147.68 1328.19C1144.23 1329.76 1141.5 1332.42 1139.99 1335.7L684.811 1219.61C684.913 1218.61 684.908 1217.6 684.796 1216.6V1216.6ZM1162.03 1328.32L1208.76 1192.18L1270.52 1198.61C1270.62 1199.79 1270.88 1200.94 1271.29 1202.06C1272.12 1204.31 1273.51 1206.35 1275.36 1208.01L1164.46 1329.77C1163.7 1329.22 1162.88 1328.73 1162.03 1328.32ZM1296.55 1209.07C1298.84 1207.43 1300.61 1205.25 1301.67 1202.76L1495.63 1255.29C1495.09 1257.85 1495.28 1260.49 1496.18 1262.96C1496.68 1264.29 1497.37 1265.55 1498.25 1266.71L1392.79 1349.23L1296.55 1209.07ZM1500.17 1268.82C1501.86 1270.38 1503.91 1271.57 1506.16 1272.31C1508.42 1273.05 1510.82 1273.31 1513.19 1273.09L1591.33 1632.93L1590.51 1633.14C1589.77 1633.37 1589.04 1633.66 1588.34 1634L1394.42 1351.58L1500.17 1268.82ZM1610.04 1654.2C1611.15 1652.21 1611.76 1650.03 1611.84 1647.8L2097.45 1602.89C2097.58 1603.56 2097.77 1604.21 2098.01 1604.85C2098.13 1605.19 2098.28 1605.5 2098.42 1605.83L1791.3 1757.73L1610.04 1654.2ZM2099.82 1608.27C2101.33 1610.38 2103.39 1612.11 2105.81 1613.29C2108.23 1614.47 2110.93 1615.06 2113.66 1615.01L2156.15 1955.01C2155.52 1955.14 2154.9 1955.3 2154.29 1955.49C2151.23 1956.46 2148.55 1958.26 2146.6 1960.66L1794.24 1759.41L2099.82 1608.27ZM1826.01 1571.8C1824.39 1572.31 1822.88 1573.05 1821.52 1574L1749.33 1499.97L1835.36 1415.87C1837.59 1417.47 1840.24 1418.51 1843.04 1418.88L1830.91 1571.05C1829.24 1571.06 1827.59 1571.31 1826.01 1571.8ZM1727.79 1204.31C1729.87 1205.92 1732.36 1207.01 1735.02 1207.49C1737.68 1207.97 1740.43 1207.82 1743.01 1207.05L1824.04 1364.67L1727.79 1204.31ZM1734.2 858.748C1732.7 859.211 1731.28 859.884 1730 860.744L1718.65 848.57L1843 635.86L1744.15 858.62C1740.9 857.68 1737.42 857.725 1734.2 858.748V858.748ZM1838.92 611.285C1838.73 613.919 1839.29 616.554 1840.54 618.924C1841.8 621.294 1843.71 623.316 1846.07 624.784L1716.56 846.332L1448.21 558.57C1450.12 556.728 1451.49 554.46 1452.19 551.985L1838.92 611.285ZM1522.43 335.468C1524.03 337.576 1526.18 339.269 1528.68 340.386L1449.44 539.084C1447.41 536.612 1444.61 534.785 1441.41 533.855C1438.22 532.925 1434.79 532.938 1431.61 533.893C1428.42 534.848 1425.64 536.698 1423.63 539.186C1421.63 541.674 1420.51 544.677 1420.43 547.779L1080.83 569.39L1522.43 335.468ZM1077.63 572.355L1420.56 550.531C1420.83 552.17 1421.42 553.753 1422.28 555.206L1197.58 693.264L1077.63 572.355ZM1074.91 573.78L1195.06 694.861L963.378 837.152C962.004 835.57 960.299 834.261 958.365 833.303L1074.91 573.78ZM658.177 873.017L269.721 958.96L25.8616 741.731C27.0419 740.353 27.9527 738.795 28.5527 737.126L658.177 873.017ZM6.70105 746.15C9.66654 747.377 12.9633 747.745 16.1584 747.204L88.1259 985.288C84.2268 986.672 81.0574 989.401 79.2826 992.904C77.5078 996.407 77.2658 1000.41 78.6072 1004.08C78.7958 1004.6 79.0165 1005.11 79.2683 1005.6L-252.89 1185.87C-253.982 1184.47 -255.324 1183.26 -256.857 1182.28L6.70105 746.15ZM-281.093 1189.19C-281.332 1189.76 -281.532 1190.35 -281.692 1190.94L-491.383 1161.01C-491.146 1157.4 -492.326 1153.84 -494.703 1150.97C-497.08 1148.11 -500.494 1146.14 -504.315 1145.43L-499.333 1102.06C-497.489 1102.09 -495.653 1101.82 -493.905 1101.28C-490.352 1100.17 -487.331 1097.94 -485.37 1094.98L-281.093 1189.19ZM-751.543 1091.12C-751.078 1091.7 -750.564 1092.24 -750.005 1092.74L-954.528 1337.92L-1063.23 1293.08C-1062.1 1289.96 -1062.1 1286.59 -1063.23 1283.47C-1063.52 1282.71 -1063.87 1281.98 -1064.28 1281.28L-751.543 1091.12ZM-1078.44 1303.37C-1076.66 1303.37 -1074.89 1303.11 -1073.2 1302.59C-1069.42 1301.4 -1066.26 1298.96 -1064.31 1295.73L-956.266 1340.29L-1092.88 1504.11C-1094.7 1502.79 -1096.79 1501.85 -1099.03 1501.36L-1078.44 1303.37ZM-1094.33 1528.6C-1092.32 1527.45 -1090.6 1525.9 -1089.31 1524.06L-947.208 1579.33L-979.24 1715.79C-981.39 1715.65 -983.549 1715.91 -985.591 1716.55C-986.459 1716.83 -987.303 1717.18 -988.113 1717.59L-1094.33 1528.6ZM-640.377 1678.76C-641.768 1677.96 -643.282 1677.35 -644.867 1676.97L-584.141 1451.11L-485.462 1478.31C-485.943 1480.78 -485.743 1483.34 -484.88 1485.73C-484.018 1488.11 -482.52 1490.26 -480.526 1491.98L-640.377 1678.76ZM-47.8435 1469.21C-46.883 1466.64 -46.7006 1463.88 -47.3161 1461.22C-47.9315 1458.57 -49.3214 1456.12 -51.3343 1454.14L113.93 1292.27C116.795 1294.34 120.332 1295.47 123.971 1295.46L149.652 1539.44C148.927 1539.57 148.213 1539.74 147.515 1539.96C143.752 1541.13 140.595 1543.56 138.657 1546.77L-47.8435 1469.21ZM168.182 1558.39C169.143 1555.42 169.078 1552.24 167.998 1549.31C167.402 1547.67 166.496 1546.14 165.322 1544.79L275.196 1446.8L480.811 1669.98C479.695 1671.04 478.756 1672.25 478.028 1673.57L168.182 1558.39ZM500.248 1663.87L585.41 1440.6L601.849 1462.27C599.943 1463.77 598.439 1465.66 597.457 1467.79C596.475 1469.93 596.042 1472.24 596.191 1474.56C596.34 1476.87 597.068 1479.12 598.317 1481.13C599.566 1483.14 601.301 1484.85 603.387 1486.13L500.248 1663.87ZM627.499 1468.58C626.646 1466.39 625.252 1464.42 623.428 1462.82C621.604 1461.22 619.401 1460.03 616.996 1459.36L666.958 1232.88C670.711 1233.27 674.493 1232.42 677.641 1230.49C680.789 1228.56 683.104 1225.66 684.181 1222.3L1138.99 1338.35C1138.42 1340.59 1138.42 1342.92 1138.99 1345.15L627.499 1468.58ZM1154.08 1356.61C1157.25 1356.73 1160.4 1355.98 1163.11 1354.45C1165.83 1352.93 1168 1350.69 1169.35 1348.02C1170.7 1345.35 1171.18 1342.38 1170.71 1339.46C1170.24 1336.55 1168.86 1333.83 1166.73 1331.64L1277.78 1209.73C1278.21 1210 1278.65 1210.25 1279.11 1210.47L1127.72 1547.94C1127.34 1547.83 1126.94 1547.73 1126.54 1547.64L1154.08 1356.61ZM1138.99 1563.72C1139.39 1560.16 1138.39 1556.59 1136.18 1553.66L1392.11 1353.38L1585.76 1635.51C1582.94 1637.54 1580.91 1640.37 1580.01 1643.58L1138.99 1563.72ZM1616.81 1855.94C1617.32 1853.43 1617.12 1850.83 1616.22 1848.4C1616.13 1848.13 1616.01 1847.89 1615.9 1847.63L1791.19 1760.95L2145 1963.01C2144.66 1963.68 2144.36 1964.36 2144.12 1965.06L1616.81 1855.94Z" stroke="#08FDD8" stroke-miterlimit="10"/>
</g>
<defs>
<clipPath id="clip0_0_1">
<rect width="1440" height="6000" fill="white"/>
</clipPath>
</defs>
</svg>
