<svg width="116" height="21" viewBox="0 0 116 21" fill="none" xmlns="http://www.w3.org/2000/svg">
<path d="M6.19531 19.5156C3.85156 18.8581 2.67969 17.3444 2.67969 14.9746V13.0312C2.67969 11.6576 2.10026 10.9707 0.941406 10.9707V8.94922C2.07422 8.94922 2.65365 8.30143 2.67969 7.00586V4.93555C2.67969 3.73112 2.97266 2.75781 3.55859 2.01562C4.14453 1.27344 5.02344 0.736328 6.19531 0.404297L6.74219 1.97656C6.2474 2.15885 5.87305 2.47786 5.61914 2.93359C5.36523 3.38281 5.23177 4.00781 5.21875 4.80859V6.85938C5.21875 8.33073 4.63607 9.36263 3.4707 9.95508C4.63607 10.554 5.21875 11.5924 5.21875 13.0703V15.1406C5.2513 16.6641 5.75911 17.5951 6.74219 17.9336L6.19531 19.5156ZM27.1621 10.4434C27.1621 11.9147 26.9505 13.3307 26.5273 14.6914C26.1042 16.0521 25.4954 17.2533 24.7012 18.2949C23.9069 19.3366 23.0573 20.0527 22.1523 20.4434L21.6055 18.9492C22.5299 18.2526 23.2591 17.1784 23.793 15.7266C24.3268 14.2747 24.6035 12.6048 24.623 10.7168V10.1992C24.623 8.2526 24.3561 6.53711 23.8223 5.05273C23.2949 3.56836 22.556 2.45508 21.6055 1.71289L22.1523 0.21875C23.0378 0.602865 23.8711 1.29948 24.6523 2.30859C25.4401 3.31771 26.0488 4.49284 26.4785 5.83398C26.9147 7.17513 27.1426 8.5651 27.1621 10.0039V10.4434Z" fill="#08FDD8"/>
<path d="M19.916 16H16.9863V9.90625H11.2734V16H8.34375V1.78125H11.2734V7.54297H16.9863V1.78125H19.916V16ZM39.7695 12.4746L42.9922 1.78125H46.2539L41.3027 16H38.2461L33.3145 1.78125H36.5664L39.7695 12.4746ZM50.7168 16H47.7871V1.78125H50.7168V16ZM65.0039 16H62.0742L56.3711 6.64453V16H53.4414V1.78125H56.3711L62.084 11.1562V1.78125H65.0039V16ZM70.6777 16H67.748V1.78125H70.6777V16ZM84.5645 11.2637C84.4538 12.7936 83.8874 13.998 82.8652 14.877C81.8496 15.7559 80.5085 16.1953 78.8418 16.1953C77.0189 16.1953 75.5833 15.5833 74.5352 14.3594C73.4935 13.1289 72.9727 11.4427 72.9727 9.30078V8.43164C72.9727 7.06445 73.2135 5.86003 73.6953 4.81836C74.1771 3.77669 74.8639 2.97917 75.7559 2.42578C76.6543 1.86589 77.696 1.58594 78.8809 1.58594C80.5215 1.58594 81.8431 2.02539 82.8457 2.9043C83.8483 3.7832 84.4277 5.01693 84.584 6.60547H81.6543C81.5827 5.6875 81.3255 5.02344 80.8828 4.61328C80.4466 4.19661 79.7793 3.98828 78.8809 3.98828C77.9043 3.98828 77.1719 4.33984 76.6836 5.04297C76.2018 5.73958 75.9544 6.82357 75.9414 8.29492V9.36914C75.9414 10.9056 76.1725 12.0286 76.6348 12.7383C77.1035 13.4479 77.8392 13.8027 78.8418 13.8027C79.7467 13.8027 80.4206 13.5977 80.8633 13.1875C81.3125 12.7708 81.5697 12.1296 81.6348 11.2637H84.5645ZM89.6035 16H86.6738V1.78125H89.6035V16ZM103.09 1.78125V11.1465C103.09 12.7025 102.602 13.9329 101.625 14.8379C100.655 15.7428 99.3268 16.1953 97.6406 16.1953C95.9805 16.1953 94.6621 15.7559 93.6855 14.877C92.709 13.998 92.2109 12.7904 92.1914 11.2539V1.78125H95.1211V11.166C95.1211 12.097 95.3424 12.7773 95.7852 13.207C96.2344 13.6302 96.8529 13.8418 97.6406 13.8418C99.2878 13.8418 100.124 12.9759 100.15 11.2441V1.78125H103.09ZM112.865 12.2695C112.865 11.7161 112.67 11.293 112.279 11C111.889 10.7005 111.186 10.388 110.17 10.0625C109.154 9.73047 108.35 9.40495 107.758 9.08594C106.143 8.21354 105.336 7.03841 105.336 5.56055C105.336 4.79232 105.551 4.10872 105.98 3.50977C106.417 2.9043 107.038 2.43229 107.846 2.09375C108.66 1.75521 109.571 1.58594 110.58 1.58594C111.596 1.58594 112.501 1.77148 113.295 2.14258C114.089 2.50716 114.704 3.02474 115.141 3.69531C115.583 4.36589 115.805 5.1276 115.805 5.98047H112.875C112.875 5.32943 112.67 4.82487 112.26 4.4668C111.85 4.10221 111.273 3.91992 110.531 3.91992C109.815 3.91992 109.258 4.07292 108.861 4.37891C108.464 4.67839 108.266 5.07552 108.266 5.57031C108.266 6.03255 108.497 6.41992 108.959 6.73242C109.428 7.04492 110.115 7.33789 111.02 7.61133C112.686 8.11263 113.9 8.73438 114.662 9.47656C115.424 10.2188 115.805 11.1432 115.805 12.25C115.805 13.4805 115.339 14.4473 114.408 15.1504C113.477 15.847 112.224 16.1953 110.648 16.1953C109.555 16.1953 108.559 15.9967 107.66 15.5996C106.762 15.196 106.075 14.6458 105.6 13.9492C105.131 13.2526 104.896 12.4453 104.896 11.5273H107.836C107.836 13.0964 108.773 13.8809 110.648 13.8809C111.345 13.8809 111.889 13.7409 112.279 13.4609C112.67 13.1745 112.865 12.7773 112.865 12.2695Z" fill="white"/>
</svg>
